<mxfile host="app.diagrams.net" modified="2022-09-23T01:17:51.511Z" agent="5.0 (Windows NT 10.0; Win64; x64) AppleWebKit/537.36 (KHTML, like Gecko) Chrome/105.0.0.0 Safari/537.36" etag="fDEjdfsaguwiqwXBgQdR" version="20.3.3" type="github" pages="3">
  <diagram id="O57XJA18-S0DsmIZMTSG" name="Flow">
    <mxGraphModel dx="2537" dy="1557" grid="1" gridSize="10" guides="1" tooltips="1" connect="1" arrows="1" fold="1" page="1" pageScale="1" pageWidth="827" pageHeight="1169" math="0" shadow="0">
      <root>
        <mxCell id="0" />
        <mxCell id="1" parent="0" />
        <mxCell id="XKzR3t1UuBaWKu46-JBd-1" value="" style="rounded=0;whiteSpace=wrap;html=1;fontSize=13;" parent="1" vertex="1">
          <mxGeometry x="-843" y="360" width="860" height="820" as="geometry" />
        </mxCell>
        <mxCell id="FwMJxgxvuYq8EWC6jKZR-33" value="" style="rounded=0;whiteSpace=wrap;html=1;fontSize=20;" parent="1" vertex="1">
          <mxGeometry x="390" y="2360" width="860" height="950" as="geometry" />
        </mxCell>
        <mxCell id="oXbdgaAhtaBAxmXEic1q-6" value="" style="rounded=0;whiteSpace=wrap;html=1;fontSize=20;" parent="1" vertex="1">
          <mxGeometry x="400" y="-580" width="860" height="550" as="geometry" />
        </mxCell>
        <mxCell id="WBeluj5auW7oqrWTnOyP-22" value="" style="rounded=0;whiteSpace=wrap;html=1;fontSize=20;" parent="1" vertex="1">
          <mxGeometry x="413" y="-170" width="457" height="100" as="geometry" />
        </mxCell>
        <mxCell id="FwMJxgxvuYq8EWC6jKZR-34" value="" style="rounded=0;whiteSpace=wrap;html=1;fontSize=20;" parent="1" vertex="1">
          <mxGeometry x="410" y="2370" width="570" height="130" as="geometry" />
        </mxCell>
        <mxCell id="FwMJxgxvuYq8EWC6jKZR-4" value="" style="rounded=0;whiteSpace=wrap;html=1;fontSize=20;" parent="1" vertex="1">
          <mxGeometry x="400" y="360" width="860" height="470" as="geometry" />
        </mxCell>
        <mxCell id="FwMJxgxvuYq8EWC6jKZR-5" value="" style="rounded=0;whiteSpace=wrap;html=1;fontSize=20;" parent="1" vertex="1">
          <mxGeometry x="413" y="410" width="457" height="100" as="geometry" />
        </mxCell>
        <mxCell id="FwMJxgxvuYq8EWC6jKZR-16" value="" style="rounded=0;whiteSpace=wrap;html=1;fontSize=20;" parent="1" vertex="1">
          <mxGeometry x="400" y="970" width="860" height="470" as="geometry" />
        </mxCell>
        <mxCell id="FwMJxgxvuYq8EWC6jKZR-17" value="" style="rounded=0;whiteSpace=wrap;html=1;fontSize=20;" parent="1" vertex="1">
          <mxGeometry x="413" y="1010" width="487" height="100" as="geometry" />
        </mxCell>
        <mxCell id="oXbdgaAhtaBAxmXEic1q-5" style="edgeStyle=orthogonalEdgeStyle;rounded=0;orthogonalLoop=1;jettySize=auto;html=1;exitX=0.5;exitY=0.5;exitDx=0;exitDy=0;exitPerimeter=0;entryX=0;entryY=0.5;entryDx=0;entryDy=0;fontSize=20;" parent="1" source="oXbdgaAhtaBAxmXEic1q-1" target="oXbdgaAhtaBAxmXEic1q-4" edge="1">
          <mxGeometry relative="1" as="geometry" />
        </mxCell>
        <mxCell id="XKzR3t1UuBaWKu46-JBd-4" style="edgeStyle=orthogonalEdgeStyle;rounded=0;orthogonalLoop=1;jettySize=auto;html=1;exitX=0.5;exitY=0.5;exitDx=0;exitDy=0;exitPerimeter=0;entryX=0.5;entryY=0;entryDx=0;entryDy=0;strokeColor=#000000;fontSize=13;" parent="1" source="oXbdgaAhtaBAxmXEic1q-1" target="XKzR3t1UuBaWKu46-JBd-3" edge="1">
          <mxGeometry relative="1" as="geometry" />
        </mxCell>
        <mxCell id="oXbdgaAhtaBAxmXEic1q-1" value="사용자" style="shape=umlActor;verticalLabelPosition=bottom;verticalAlign=top;html=1;outlineConnect=0;" parent="1" vertex="1">
          <mxGeometry x="100" y="170" width="30" height="60" as="geometry" />
        </mxCell>
        <mxCell id="oXbdgaAhtaBAxmXEic1q-9" value="" style="rounded=0;whiteSpace=wrap;html=1;fontSize=20;" parent="1" vertex="1">
          <mxGeometry x="413" y="-530" width="457" height="100" as="geometry" />
        </mxCell>
        <mxCell id="FwMJxgxvuYq8EWC6jKZR-35" style="edgeStyle=orthogonalEdgeStyle;rounded=0;orthogonalLoop=1;jettySize=auto;html=1;exitX=1;exitY=0.5;exitDx=0;exitDy=0;entryX=0;entryY=0.5;entryDx=0;entryDy=0;fontSize=20;fontColor=#000000;strokeColor=#000000;startArrow=none;" parent="1" source="FwMJxgxvuYq8EWC6jKZR-33" target="FwMJxgxvuYq8EWC6jKZR-29" edge="1">
          <mxGeometry relative="1" as="geometry">
            <Array as="points">
              <mxPoint x="1250" y="200" />
              <mxPoint x="360" y="200" />
              <mxPoint x="360" y="2435" />
            </Array>
          </mxGeometry>
        </mxCell>
        <mxCell id="tLdyOI6LnVIX3LAUtrd9-4" style="edgeStyle=orthogonalEdgeStyle;rounded=0;orthogonalLoop=1;jettySize=auto;html=1;exitX=1;exitY=0.5;exitDx=0;exitDy=0;entryX=0;entryY=0.5;entryDx=0;entryDy=0;" parent="1" source="oXbdgaAhtaBAxmXEic1q-4" target="tLdyOI6LnVIX3LAUtrd9-3" edge="1">
          <mxGeometry relative="1" as="geometry">
            <Array as="points">
              <mxPoint x="370" y="200" />
              <mxPoint x="370" y="-320" />
            </Array>
          </mxGeometry>
        </mxCell>
        <mxCell id="tLdyOI6LnVIX3LAUtrd9-6" style="edgeStyle=orthogonalEdgeStyle;rounded=0;orthogonalLoop=1;jettySize=auto;html=1;exitX=1;exitY=0.5;exitDx=0;exitDy=0;entryX=0;entryY=0.5;entryDx=0;entryDy=0;" parent="1" source="oXbdgaAhtaBAxmXEic1q-4" target="tLdyOI6LnVIX3LAUtrd9-5" edge="1">
          <mxGeometry relative="1" as="geometry">
            <Array as="points">
              <mxPoint x="360" y="200" />
              <mxPoint x="360" y="615" />
            </Array>
          </mxGeometry>
        </mxCell>
        <mxCell id="tLdyOI6LnVIX3LAUtrd9-12" style="edgeStyle=orthogonalEdgeStyle;rounded=0;orthogonalLoop=1;jettySize=auto;html=1;exitX=1;exitY=0.5;exitDx=0;exitDy=0;entryX=0;entryY=0.5;entryDx=0;entryDy=0;" parent="1" source="oXbdgaAhtaBAxmXEic1q-4" target="tLdyOI6LnVIX3LAUtrd9-11" edge="1">
          <mxGeometry relative="1" as="geometry">
            <Array as="points">
              <mxPoint x="360" y="200" />
              <mxPoint x="360" y="1210" />
            </Array>
          </mxGeometry>
        </mxCell>
        <mxCell id="xfxCMn-exnxIlFrXd_NS-2" style="edgeStyle=orthogonalEdgeStyle;rounded=0;orthogonalLoop=1;jettySize=auto;html=1;exitX=1;exitY=0.5;exitDx=0;exitDy=0;entryX=0;entryY=0.5;entryDx=0;entryDy=0;" parent="1" source="oXbdgaAhtaBAxmXEic1q-4" target="tLdyOI6LnVIX3LAUtrd9-1" edge="1">
          <mxGeometry relative="1" as="geometry">
            <Array as="points">
              <mxPoint x="360" y="200" />
              <mxPoint x="360" y="2570" />
            </Array>
          </mxGeometry>
        </mxCell>
        <mxCell id="xfxCMn-exnxIlFrXd_NS-3" style="edgeStyle=orthogonalEdgeStyle;rounded=0;orthogonalLoop=1;jettySize=auto;html=1;exitX=1;exitY=0.5;exitDx=0;exitDy=0;entryX=0;entryY=0.5;entryDx=0;entryDy=0;" parent="1" source="oXbdgaAhtaBAxmXEic1q-4" target="xfxCMn-exnxIlFrXd_NS-1" edge="1">
          <mxGeometry relative="1" as="geometry">
            <Array as="points">
              <mxPoint x="360" y="200" />
              <mxPoint x="360" y="2680" />
            </Array>
          </mxGeometry>
        </mxCell>
        <mxCell id="3MtBi7XmlANeMtxRmCWt-22" style="edgeStyle=orthogonalEdgeStyle;rounded=0;orthogonalLoop=1;jettySize=auto;html=1;exitX=1;exitY=0.5;exitDx=0;exitDy=0;entryX=0;entryY=0.75;entryDx=0;entryDy=0;strokeColor=#000000;fontSize=13;" parent="1" source="oXbdgaAhtaBAxmXEic1q-4" target="3MtBi7XmlANeMtxRmCWt-14" edge="1">
          <mxGeometry relative="1" as="geometry">
            <Array as="points">
              <mxPoint x="360" y="200" />
              <mxPoint x="360" y="3492" />
            </Array>
          </mxGeometry>
        </mxCell>
        <mxCell id="oXbdgaAhtaBAxmXEic1q-4" value="/&lt;br&gt;메인 페이지" style="rounded=0;whiteSpace=wrap;html=1;fontSize=20;" parent="1" vertex="1">
          <mxGeometry x="215" y="170" width="120" height="60" as="geometry" />
        </mxCell>
        <mxCell id="oXbdgaAhtaBAxmXEic1q-8" value="&lt;h1&gt;포켓몬스터(/pocketmon)&lt;/h1&gt;" style="text;html=1;strokeColor=none;fillColor=none;spacing=5;spacingTop=-20;whiteSpace=wrap;overflow=hidden;rounded=0;fontSize=20;" parent="1" vertex="1">
          <mxGeometry x="400" y="-660" width="560" height="80" as="geometry" />
        </mxCell>
        <mxCell id="oXbdgaAhtaBAxmXEic1q-10" value="등록" style="text;html=1;strokeColor=none;fillColor=none;align=center;verticalAlign=middle;whiteSpace=wrap;rounded=0;fontSize=20;" parent="1" vertex="1">
          <mxGeometry x="413" y="-560" width="60" height="30" as="geometry" />
        </mxCell>
        <mxCell id="oXbdgaAhtaBAxmXEic1q-14" value="no&lt;br&gt;name&lt;br&gt;type" style="edgeStyle=orthogonalEdgeStyle;rounded=0;orthogonalLoop=1;jettySize=auto;html=1;exitX=1;exitY=0.5;exitDx=0;exitDy=0;entryX=0;entryY=0.5;entryDx=0;entryDy=0;fontSize=20;" parent="1" source="oXbdgaAhtaBAxmXEic1q-12" target="oXbdgaAhtaBAxmXEic1q-13" edge="1">
          <mxGeometry relative="1" as="geometry" />
        </mxCell>
        <mxCell id="oXbdgaAhtaBAxmXEic1q-12" value="/insert[GET]&lt;br&gt;정보 입력" style="rounded=0;whiteSpace=wrap;html=1;fontSize=20;" parent="1" vertex="1">
          <mxGeometry x="430" y="-510" width="130" height="60" as="geometry" />
        </mxCell>
        <mxCell id="FwMJxgxvuYq8EWC6jKZR-2" value="리다이렉트&lt;br&gt;redirect" style="edgeStyle=orthogonalEdgeStyle;rounded=0;orthogonalLoop=1;jettySize=auto;html=1;exitX=1;exitY=0.5;exitDx=0;exitDy=0;entryX=0;entryY=0.5;entryDx=0;entryDy=0;fontSize=20;fillColor=#f8cecc;strokeColor=#FF3333;fontColor=#FF3333;" parent="1" source="oXbdgaAhtaBAxmXEic1q-13" target="FwMJxgxvuYq8EWC6jKZR-1" edge="1">
          <mxGeometry relative="1" as="geometry" />
        </mxCell>
        <mxCell id="oXbdgaAhtaBAxmXEic1q-13" value="/insert[POST]&lt;br&gt;데이터 등록" style="rounded=0;whiteSpace=wrap;html=1;fontSize=20;" parent="1" vertex="1">
          <mxGeometry x="700" y="-510" width="155" height="60" as="geometry" />
        </mxCell>
        <mxCell id="FwMJxgxvuYq8EWC6jKZR-1" value="/insert_success&lt;br&gt;등록 완료 안내" style="rounded=0;whiteSpace=wrap;html=1;fontSize=20;" parent="1" vertex="1">
          <mxGeometry x="1060" y="-510" width="170" height="60" as="geometry" />
        </mxCell>
        <mxCell id="FwMJxgxvuYq8EWC6jKZR-3" value="&lt;h1&gt;방명록(/guestbook)&lt;/h1&gt;" style="text;html=1;strokeColor=none;fillColor=none;spacing=5;spacingTop=-20;whiteSpace=wrap;overflow=hidden;rounded=0;fontSize=20;fontColor=#000000;" parent="1" vertex="1">
          <mxGeometry x="400" y="280" width="370" height="80" as="geometry" />
        </mxCell>
        <mxCell id="FwMJxgxvuYq8EWC6jKZR-6" value="등록" style="text;html=1;strokeColor=none;fillColor=none;align=center;verticalAlign=middle;whiteSpace=wrap;rounded=0;fontSize=20;" parent="1" vertex="1">
          <mxGeometry x="413" y="380" width="60" height="30" as="geometry" />
        </mxCell>
        <mxCell id="FwMJxgxvuYq8EWC6jKZR-7" value="name&lt;br&gt;memo" style="edgeStyle=orthogonalEdgeStyle;rounded=0;orthogonalLoop=1;jettySize=auto;html=1;exitX=1;exitY=0.5;exitDx=0;exitDy=0;fontSize=20;entryX=0;entryY=0.5;entryDx=0;entryDy=0;" parent="1" source="FwMJxgxvuYq8EWC6jKZR-8" target="FwMJxgxvuYq8EWC6jKZR-24" edge="1">
          <mxGeometry relative="1" as="geometry">
            <mxPoint x="700.0000000000002" y="460.0000000000002" as="targetPoint" />
          </mxGeometry>
        </mxCell>
        <mxCell id="FwMJxgxvuYq8EWC6jKZR-8" value="/insert[GET]&lt;br&gt;정보 입력" style="rounded=0;whiteSpace=wrap;html=1;fontSize=20;" parent="1" vertex="1">
          <mxGeometry x="430" y="430" width="130" height="60" as="geometry" />
        </mxCell>
        <mxCell id="FwMJxgxvuYq8EWC6jKZR-9" value="리다이렉트&lt;br&gt;redirect" style="edgeStyle=orthogonalEdgeStyle;rounded=0;orthogonalLoop=1;jettySize=auto;html=1;exitX=1;exitY=0.5;exitDx=0;exitDy=0;entryX=0;entryY=0.5;entryDx=0;entryDy=0;fontSize=20;fillColor=#f8cecc;strokeColor=#FF3333;fontColor=#FF3333;" parent="1" target="FwMJxgxvuYq8EWC6jKZR-10" edge="1">
          <mxGeometry relative="1" as="geometry">
            <mxPoint x="855" y="460.0000000000002" as="sourcePoint" />
          </mxGeometry>
        </mxCell>
        <mxCell id="tLdyOI6LnVIX3LAUtrd9-9" style="edgeStyle=orthogonalEdgeStyle;rounded=0;orthogonalLoop=1;jettySize=auto;html=1;exitX=0.5;exitY=1;exitDx=0;exitDy=0;entryX=0.75;entryY=0;entryDx=0;entryDy=0;" parent="1" source="FwMJxgxvuYq8EWC6jKZR-10" target="tLdyOI6LnVIX3LAUtrd9-5" edge="1">
          <mxGeometry relative="1" as="geometry">
            <Array as="points">
              <mxPoint x="1145" y="550" />
              <mxPoint x="528" y="550" />
            </Array>
          </mxGeometry>
        </mxCell>
        <mxCell id="FwMJxgxvuYq8EWC6jKZR-10" value="/insert_success&lt;br&gt;등록 완료 안내" style="rounded=0;whiteSpace=wrap;html=1;fontSize=20;" parent="1" vertex="1">
          <mxGeometry x="1060" y="430" width="170" height="60" as="geometry" />
        </mxCell>
        <mxCell id="FwMJxgxvuYq8EWC6jKZR-11" value="/insert[POST]&lt;br&gt;데이터 등록" style="rounded=0;whiteSpace=wrap;html=1;fontSize=20;" parent="1" vertex="1">
          <mxGeometry x="730" y="1030" width="155" height="60" as="geometry" />
        </mxCell>
        <mxCell id="FwMJxgxvuYq8EWC6jKZR-15" value="&lt;h1&gt;음원(/music)&lt;/h1&gt;" style="text;html=1;strokeColor=none;fillColor=none;spacing=5;spacingTop=-20;whiteSpace=wrap;overflow=hidden;rounded=0;fontSize=20;fontColor=#000000;" parent="1" vertex="1">
          <mxGeometry x="400" y="890" width="650" height="70" as="geometry" />
        </mxCell>
        <mxCell id="FwMJxgxvuYq8EWC6jKZR-18" value="등록" style="text;html=1;strokeColor=none;fillColor=none;align=center;verticalAlign=middle;whiteSpace=wrap;rounded=0;fontSize=20;" parent="1" vertex="1">
          <mxGeometry x="413" y="980" width="60" height="30" as="geometry" />
        </mxCell>
        <mxCell id="FwMJxgxvuYq8EWC6jKZR-19" value="musicTitle&lt;br&gt;musicAlbum&lt;br&gt;musicArtist&lt;br&gt;releaseTime" style="edgeStyle=orthogonalEdgeStyle;rounded=0;orthogonalLoop=1;jettySize=auto;html=1;exitX=1;exitY=0.5;exitDx=0;exitDy=0;fontSize=20;entryX=0;entryY=0.5;entryDx=0;entryDy=0;" parent="1" source="FwMJxgxvuYq8EWC6jKZR-20" target="FwMJxgxvuYq8EWC6jKZR-11" edge="1">
          <mxGeometry relative="1" as="geometry">
            <mxPoint x="710" y="1060" as="targetPoint" />
          </mxGeometry>
        </mxCell>
        <mxCell id="FwMJxgxvuYq8EWC6jKZR-20" value="/insert[GET]&lt;br&gt;정보 입력" style="rounded=0;whiteSpace=wrap;html=1;fontSize=20;" parent="1" vertex="1">
          <mxGeometry x="430" y="1030" width="130" height="60" as="geometry" />
        </mxCell>
        <mxCell id="FwMJxgxvuYq8EWC6jKZR-21" value="리다이렉트&lt;br&gt;redirect" style="edgeStyle=orthogonalEdgeStyle;rounded=0;orthogonalLoop=1;jettySize=auto;html=1;entryX=0;entryY=0.5;entryDx=0;entryDy=0;fontSize=20;fillColor=#f8cecc;strokeColor=#FF3333;fontColor=#FF3333;exitX=1;exitY=0.5;exitDx=0;exitDy=0;" parent="1" source="FwMJxgxvuYq8EWC6jKZR-11" target="FwMJxgxvuYq8EWC6jKZR-22" edge="1">
          <mxGeometry relative="1" as="geometry">
            <mxPoint x="900" y="1060" as="sourcePoint" />
          </mxGeometry>
        </mxCell>
        <mxCell id="tLdyOI6LnVIX3LAUtrd9-14" style="edgeStyle=orthogonalEdgeStyle;rounded=0;orthogonalLoop=1;jettySize=auto;html=1;exitX=0.5;exitY=1;exitDx=0;exitDy=0;entryX=0.75;entryY=0;entryDx=0;entryDy=0;" parent="1" source="FwMJxgxvuYq8EWC6jKZR-22" target="tLdyOI6LnVIX3LAUtrd9-11" edge="1">
          <mxGeometry relative="1" as="geometry" />
        </mxCell>
        <mxCell id="FwMJxgxvuYq8EWC6jKZR-22" value="/insert_success&lt;br&gt;등록 완료 안내" style="rounded=0;whiteSpace=wrap;html=1;fontSize=20;" parent="1" vertex="1">
          <mxGeometry x="1060" y="1030" width="170" height="60" as="geometry" />
        </mxCell>
        <mxCell id="FwMJxgxvuYq8EWC6jKZR-24" value="/insert[POST]&lt;br&gt;데이터 등록" style="rounded=0;whiteSpace=wrap;html=1;fontSize=20;" parent="1" vertex="1">
          <mxGeometry x="690" y="430" width="155" height="60" as="geometry" />
        </mxCell>
        <mxCell id="FwMJxgxvuYq8EWC6jKZR-27" value="&lt;h1&gt;회원(/member)&lt;/h1&gt;&lt;div&gt;테이블 이름 - member&lt;/div&gt;&lt;div&gt;테이블 항목&lt;/div&gt;&lt;div&gt;- 회원아이디 : member_id, 5~20자의 영문 소문자, 숫자와 특수기호(_),(-)만 사용 가능합니다.&lt;/div&gt;&lt;div&gt;- 회원비밀번호 : member_pw, 8~16자 영문 대 소문자, 숫자, 특수문자(!, @, #, $)를 사용하세요.&lt;/div&gt;&lt;div&gt;- 닉네임 : member_nick, 한글로 시작하며 한글 or 숫자 가능, 총 10자 이내&lt;/div&gt;&lt;div&gt;- 생년월일 : member_birth, YYYY-MM-DD, 날짜 형식&lt;/div&gt;&lt;div&gt;- 전화번호 : member_tel, 대시 제외하고 010XXXXXXXX 형태&lt;/div&gt;&lt;div&gt;- 이메일 : member_email, 100byte 이내, @ 반드시 포함&lt;/div&gt;&lt;div&gt;- 주소&lt;/div&gt;&lt;div&gt;&amp;nbsp; &amp;nbsp; - 우편번호 : member_post, 5~6자리&lt;/div&gt;&lt;div&gt;&amp;nbsp; &amp;nbsp; - 기본주소 : member_base_address, 한글 50자&lt;/div&gt;&lt;div&gt;&amp;nbsp; &amp;nbsp; - 상세주소 : member_detail_address, 한글 50자&lt;/div&gt;&lt;div&gt;- 포인트 : member_point, 0이상 설정&lt;/div&gt;&lt;div&gt;- 등급 : member_grade, 일반, VIP, 관리자 중 하나&lt;/div&gt;&lt;div&gt;- 가입일시 : member_join, 날짜이며 현재 시각으로 자동 설정&lt;/div&gt;&lt;div&gt;- 접속일시 : member_login, 로그인 할 때의 시각으로 자동 설정&lt;/div&gt;" style="text;html=1;strokeColor=none;fillColor=none;spacing=5;spacingTop=-20;whiteSpace=wrap;overflow=hidden;rounded=0;fontSize=20;fontColor=#000000;" parent="1" vertex="1">
          <mxGeometry x="400" y="1830" width="890" height="510" as="geometry" />
        </mxCell>
        <mxCell id="FwMJxgxvuYq8EWC6jKZR-32" value="redirect" style="edgeStyle=orthogonalEdgeStyle;rounded=0;orthogonalLoop=1;jettySize=auto;html=1;exitX=1;exitY=0.5;exitDx=0;exitDy=0;entryX=0;entryY=0.5;entryDx=0;entryDy=0;fontSize=20;fontColor=#000000;strokeColor=#FF0000;" parent="1" source="FwMJxgxvuYq8EWC6jKZR-28" target="FwMJxgxvuYq8EWC6jKZR-30" edge="1">
          <mxGeometry relative="1" as="geometry" />
        </mxCell>
        <mxCell id="FwMJxgxvuYq8EWC6jKZR-28" value="/join[POST]&lt;br&gt;회원 가입 처리" style="rounded=0;whiteSpace=wrap;html=1;fontSize=20;" parent="1" vertex="1">
          <mxGeometry x="740" y="2405" width="155" height="60" as="geometry" />
        </mxCell>
        <mxCell id="FwMJxgxvuYq8EWC6jKZR-31" style="edgeStyle=orthogonalEdgeStyle;rounded=0;orthogonalLoop=1;jettySize=auto;html=1;exitX=1;exitY=0.5;exitDx=0;exitDy=0;entryX=0;entryY=0.5;entryDx=0;entryDy=0;fontSize=20;fontColor=#000000;strokeColor=#000000;" parent="1" source="FwMJxgxvuYq8EWC6jKZR-29" target="FwMJxgxvuYq8EWC6jKZR-28" edge="1">
          <mxGeometry relative="1" as="geometry" />
        </mxCell>
        <mxCell id="FwMJxgxvuYq8EWC6jKZR-29" value="/join[GET]&lt;br&gt;회원 정보 입력" style="rounded=0;whiteSpace=wrap;html=1;fontSize=20;" parent="1" vertex="1">
          <mxGeometry x="440" y="2405" width="170" height="60" as="geometry" />
        </mxCell>
        <mxCell id="tLdyOI6LnVIX3LAUtrd9-2" style="edgeStyle=orthogonalEdgeStyle;rounded=0;orthogonalLoop=1;jettySize=auto;html=1;exitX=0.5;exitY=1;exitDx=0;exitDy=0;entryX=0;entryY=0.5;entryDx=0;entryDy=0;" parent="1" source="FwMJxgxvuYq8EWC6jKZR-30" target="tLdyOI6LnVIX3LAUtrd9-1" edge="1">
          <mxGeometry relative="1" as="geometry">
            <Array as="points">
              <mxPoint x="1135" y="2520" />
              <mxPoint x="410" y="2520" />
              <mxPoint x="410" y="2570" />
            </Array>
          </mxGeometry>
        </mxCell>
        <mxCell id="4kPrAsWvDnDaGXvPXhxw-1" style="edgeStyle=orthogonalEdgeStyle;rounded=0;orthogonalLoop=1;jettySize=auto;html=1;exitX=0.75;exitY=1;exitDx=0;exitDy=0;entryX=1;entryY=0.5;entryDx=0;entryDy=0;" parent="1" source="FwMJxgxvuYq8EWC6jKZR-30" target="WBeluj5auW7oqrWTnOyP-70" edge="1">
          <mxGeometry relative="1" as="geometry" />
        </mxCell>
        <mxCell id="FwMJxgxvuYq8EWC6jKZR-30" value="/join_finish&lt;br&gt;가입 완료 안내" style="rounded=0;whiteSpace=wrap;html=1;fontSize=20;" parent="1" vertex="1">
          <mxGeometry x="1050" y="2405" width="170" height="60" as="geometry" />
        </mxCell>
        <mxCell id="WBeluj5auW7oqrWTnOyP-68" value="아이디&lt;br style=&quot;font-size: 12px;&quot;&gt;비밀번호" style="edgeStyle=orthogonalEdgeStyle;rounded=0;orthogonalLoop=1;jettySize=auto;html=1;exitX=1;exitY=0.25;exitDx=0;exitDy=0;entryX=0;entryY=0.25;entryDx=0;entryDy=0;strokeColor=#000000;fontSize=12;fontColor=#000000;" parent="1" source="tLdyOI6LnVIX3LAUtrd9-1" target="WBeluj5auW7oqrWTnOyP-67" edge="1">
          <mxGeometry relative="1" as="geometry" />
        </mxCell>
        <mxCell id="tLdyOI6LnVIX3LAUtrd9-1" value="/login[GET]&lt;br&gt;로그인 입력" style="rounded=0;whiteSpace=wrap;html=1;fontSize=20;" parent="1" vertex="1">
          <mxGeometry x="440" y="2540" width="170" height="60" as="geometry" />
        </mxCell>
        <mxCell id="WBeluj5auW7oqrWTnOyP-1" style="edgeStyle=orthogonalEdgeStyle;rounded=0;orthogonalLoop=1;jettySize=auto;html=1;exitX=0.5;exitY=0;exitDx=0;exitDy=0;entryX=0.5;entryY=1;entryDx=0;entryDy=0;" parent="1" source="tLdyOI6LnVIX3LAUtrd9-3" target="oXbdgaAhtaBAxmXEic1q-12" edge="1">
          <mxGeometry relative="1" as="geometry" />
        </mxCell>
        <mxCell id="WBeluj5auW7oqrWTnOyP-3" value="no" style="edgeStyle=orthogonalEdgeStyle;rounded=0;orthogonalLoop=1;jettySize=auto;html=1;fontSize=20;exitX=1;exitY=0.25;exitDx=0;exitDy=0;entryX=0;entryY=0.25;entryDx=0;entryDy=0;" parent="1" source="tLdyOI6LnVIX3LAUtrd9-3" target="WBeluj5auW7oqrWTnOyP-2" edge="1">
          <mxGeometry relative="1" as="geometry" />
        </mxCell>
        <mxCell id="tLdyOI6LnVIX3LAUtrd9-3" value="/list[GET]&lt;br&gt;몬스터 목록" style="rounded=0;whiteSpace=wrap;html=1;fontSize=20;" parent="1" vertex="1">
          <mxGeometry x="430" y="-350" width="130" height="60" as="geometry" />
        </mxCell>
        <mxCell id="tLdyOI6LnVIX3LAUtrd9-7" style="edgeStyle=orthogonalEdgeStyle;rounded=0;orthogonalLoop=1;jettySize=auto;html=1;exitX=0.5;exitY=0;exitDx=0;exitDy=0;entryX=0.5;entryY=1;entryDx=0;entryDy=0;" parent="1" source="tLdyOI6LnVIX3LAUtrd9-5" target="FwMJxgxvuYq8EWC6jKZR-8" edge="1">
          <mxGeometry relative="1" as="geometry" />
        </mxCell>
        <mxCell id="WBeluj5auW7oqrWTnOyP-8" value="no" style="edgeStyle=orthogonalEdgeStyle;rounded=0;orthogonalLoop=1;jettySize=auto;html=1;exitX=1;exitY=0.25;exitDx=0;exitDy=0;entryX=0;entryY=0.25;entryDx=0;entryDy=0;fontSize=20;" parent="1" source="tLdyOI6LnVIX3LAUtrd9-5" target="WBeluj5auW7oqrWTnOyP-7" edge="1">
          <mxGeometry relative="1" as="geometry" />
        </mxCell>
        <mxCell id="tLdyOI6LnVIX3LAUtrd9-5" value="/list[GET]&lt;br&gt;방명록 목록" style="rounded=0;whiteSpace=wrap;html=1;fontSize=20;" parent="1" vertex="1">
          <mxGeometry x="430" y="585" width="130" height="60" as="geometry" />
        </mxCell>
        <mxCell id="tLdyOI6LnVIX3LAUtrd9-13" style="edgeStyle=orthogonalEdgeStyle;rounded=0;orthogonalLoop=1;jettySize=auto;html=1;exitX=0.5;exitY=0;exitDx=0;exitDy=0;entryX=0.5;entryY=1;entryDx=0;entryDy=0;" parent="1" source="tLdyOI6LnVIX3LAUtrd9-11" target="FwMJxgxvuYq8EWC6jKZR-20" edge="1">
          <mxGeometry relative="1" as="geometry" />
        </mxCell>
        <mxCell id="WBeluj5auW7oqrWTnOyP-12" value="musicNo" style="edgeStyle=orthogonalEdgeStyle;rounded=0;orthogonalLoop=1;jettySize=auto;html=1;exitX=1;exitY=0.25;exitDx=0;exitDy=0;entryX=0;entryY=0.25;entryDx=0;entryDy=0;fontSize=20;" parent="1" source="tLdyOI6LnVIX3LAUtrd9-11" target="WBeluj5auW7oqrWTnOyP-11" edge="1">
          <mxGeometry relative="1" as="geometry" />
        </mxCell>
        <mxCell id="tLdyOI6LnVIX3LAUtrd9-11" value="/list[GET]&lt;br&gt;목록 및 검색" style="rounded=0;whiteSpace=wrap;html=1;fontSize=20;" parent="1" vertex="1">
          <mxGeometry x="430" y="1180" width="130" height="60" as="geometry" />
        </mxCell>
        <mxCell id="WBeluj5auW7oqrWTnOyP-15" value="memberId" style="edgeStyle=orthogonalEdgeStyle;rounded=0;orthogonalLoop=1;jettySize=auto;html=1;exitX=1;exitY=0.25;exitDx=0;exitDy=0;entryX=0;entryY=0.25;entryDx=0;entryDy=0;fontSize=20;" parent="1" source="tLdyOI6LnVIX3LAUtrd9-15" target="WBeluj5auW7oqrWTnOyP-14" edge="1">
          <mxGeometry relative="1" as="geometry" />
        </mxCell>
        <mxCell id="WBeluj5auW7oqrWTnOyP-51" value="memberId" style="edgeStyle=orthogonalEdgeStyle;rounded=0;orthogonalLoop=1;jettySize=auto;html=1;exitX=0.5;exitY=1;exitDx=0;exitDy=0;entryX=0.5;entryY=0;entryDx=0;entryDy=0;strokeColor=#000000;fontSize=20;fontColor=#000000;" parent="1" source="tLdyOI6LnVIX3LAUtrd9-15" target="WBeluj5auW7oqrWTnOyP-39" edge="1">
          <mxGeometry relative="1" as="geometry" />
        </mxCell>
        <mxCell id="WBeluj5auW7oqrWTnOyP-66" style="edgeStyle=orthogonalEdgeStyle;rounded=0;orthogonalLoop=1;jettySize=auto;html=1;exitX=0.75;exitY=1;exitDx=0;exitDy=0;entryX=0.5;entryY=1;entryDx=0;entryDy=0;strokeColor=#000000;fontSize=20;fontColor=#000000;" parent="1" source="tLdyOI6LnVIX3LAUtrd9-15" target="WBeluj5auW7oqrWTnOyP-62" edge="1">
          <mxGeometry relative="1" as="geometry" />
        </mxCell>
        <mxCell id="tLdyOI6LnVIX3LAUtrd9-15" value="/list&lt;br&gt;회원 목록" style="rounded=0;whiteSpace=wrap;html=1;fontSize=20;" parent="1" vertex="1">
          <mxGeometry x="432.5" y="3080" width="170" height="60" as="geometry" />
        </mxCell>
        <mxCell id="WBeluj5auW7oqrWTnOyP-4" style="edgeStyle=orthogonalEdgeStyle;rounded=0;orthogonalLoop=1;jettySize=auto;html=1;exitX=0.5;exitY=0;exitDx=0;exitDy=0;entryX=0.5;entryY=1;entryDx=0;entryDy=0;fontSize=20;" parent="1" source="WBeluj5auW7oqrWTnOyP-2" target="oXbdgaAhtaBAxmXEic1q-12" edge="1">
          <mxGeometry relative="1" as="geometry">
            <Array as="points">
              <mxPoint x="775" y="-390" />
              <mxPoint x="495" y="-390" />
            </Array>
          </mxGeometry>
        </mxCell>
        <mxCell id="WBeluj5auW7oqrWTnOyP-6" style="edgeStyle=orthogonalEdgeStyle;rounded=0;orthogonalLoop=1;jettySize=auto;html=1;exitX=0;exitY=0.75;exitDx=0;exitDy=0;entryX=1;entryY=0.75;entryDx=0;entryDy=0;fontSize=20;" parent="1" source="WBeluj5auW7oqrWTnOyP-2" target="tLdyOI6LnVIX3LAUtrd9-3" edge="1">
          <mxGeometry relative="1" as="geometry" />
        </mxCell>
        <mxCell id="WBeluj5auW7oqrWTnOyP-19" value="no" style="edgeStyle=orthogonalEdgeStyle;rounded=0;orthogonalLoop=1;jettySize=auto;html=1;exitX=0.5;exitY=1;exitDx=0;exitDy=0;entryX=0.5;entryY=0;entryDx=0;entryDy=0;fontSize=20;" parent="1" source="WBeluj5auW7oqrWTnOyP-2" target="WBeluj5auW7oqrWTnOyP-17" edge="1">
          <mxGeometry relative="1" as="geometry" />
        </mxCell>
        <mxCell id="WBeluj5auW7oqrWTnOyP-53" value="no" style="edgeStyle=orthogonalEdgeStyle;rounded=0;orthogonalLoop=1;jettySize=auto;html=1;strokeColor=#000000;fontSize=20;fontColor=#000000;" parent="1" source="WBeluj5auW7oqrWTnOyP-2" target="WBeluj5auW7oqrWTnOyP-52" edge="1">
          <mxGeometry relative="1" as="geometry" />
        </mxCell>
        <mxCell id="WBeluj5auW7oqrWTnOyP-2" value="/detail[GET]&lt;br&gt;몬스터 상세" style="rounded=0;whiteSpace=wrap;html=1;fontSize=20;" parent="1" vertex="1">
          <mxGeometry x="700" y="-350" width="150" height="60" as="geometry" />
        </mxCell>
        <mxCell id="WBeluj5auW7oqrWTnOyP-9" style="edgeStyle=orthogonalEdgeStyle;rounded=0;orthogonalLoop=1;jettySize=auto;html=1;exitX=0.5;exitY=0;exitDx=0;exitDy=0;entryX=0.5;entryY=1;entryDx=0;entryDy=0;fontSize=20;" parent="1" source="WBeluj5auW7oqrWTnOyP-7" target="FwMJxgxvuYq8EWC6jKZR-8" edge="1">
          <mxGeometry relative="1" as="geometry" />
        </mxCell>
        <mxCell id="WBeluj5auW7oqrWTnOyP-10" style="edgeStyle=orthogonalEdgeStyle;rounded=0;orthogonalLoop=1;jettySize=auto;html=1;exitX=0;exitY=0.75;exitDx=0;exitDy=0;entryX=1;entryY=0.75;entryDx=0;entryDy=0;fontSize=20;" parent="1" source="WBeluj5auW7oqrWTnOyP-7" target="tLdyOI6LnVIX3LAUtrd9-5" edge="1">
          <mxGeometry relative="1" as="geometry" />
        </mxCell>
        <mxCell id="WBeluj5auW7oqrWTnOyP-30" value="no" style="edgeStyle=orthogonalEdgeStyle;rounded=0;orthogonalLoop=1;jettySize=auto;html=1;exitX=0.5;exitY=1;exitDx=0;exitDy=0;entryX=0.5;entryY=0;entryDx=0;entryDy=0;strokeColor=#000000;fontSize=20;fontColor=#000000;" parent="1" source="WBeluj5auW7oqrWTnOyP-7" target="WBeluj5auW7oqrWTnOyP-28" edge="1">
          <mxGeometry relative="1" as="geometry" />
        </mxCell>
        <mxCell id="WBeluj5auW7oqrWTnOyP-57" value="no" style="edgeStyle=orthogonalEdgeStyle;rounded=0;orthogonalLoop=1;jettySize=auto;html=1;exitX=1;exitY=0.5;exitDx=0;exitDy=0;entryX=0;entryY=0.5;entryDx=0;entryDy=0;strokeColor=#000000;fontSize=20;fontColor=#000000;" parent="1" source="WBeluj5auW7oqrWTnOyP-7" target="WBeluj5auW7oqrWTnOyP-56" edge="1">
          <mxGeometry relative="1" as="geometry" />
        </mxCell>
        <mxCell id="WBeluj5auW7oqrWTnOyP-7" value="/detail[GET]&lt;br&gt;방명록 상세보기" style="rounded=0;whiteSpace=wrap;html=1;fontSize=20;" parent="1" vertex="1">
          <mxGeometry x="690" y="585" width="155" height="60" as="geometry" />
        </mxCell>
        <mxCell id="WBeluj5auW7oqrWTnOyP-13" style="edgeStyle=orthogonalEdgeStyle;rounded=0;orthogonalLoop=1;jettySize=auto;html=1;exitX=0;exitY=0.75;exitDx=0;exitDy=0;entryX=1;entryY=0.75;entryDx=0;entryDy=0;fontSize=20;" parent="1" source="WBeluj5auW7oqrWTnOyP-11" target="tLdyOI6LnVIX3LAUtrd9-11" edge="1">
          <mxGeometry relative="1" as="geometry" />
        </mxCell>
        <mxCell id="WBeluj5auW7oqrWTnOyP-38" value="musicNo" style="edgeStyle=orthogonalEdgeStyle;rounded=0;orthogonalLoop=1;jettySize=auto;html=1;exitX=0.25;exitY=1;exitDx=0;exitDy=0;entryX=0.5;entryY=0;entryDx=0;entryDy=0;strokeColor=#000000;fontSize=14;fontColor=#000000;" parent="1" source="WBeluj5auW7oqrWTnOyP-11" target="WBeluj5auW7oqrWTnOyP-34" edge="1">
          <mxGeometry x="-0.1268" relative="1" as="geometry">
            <Array as="points">
              <mxPoint x="769" y="1290" />
              <mxPoint x="495" y="1290" />
            </Array>
            <mxPoint as="offset" />
          </mxGeometry>
        </mxCell>
        <mxCell id="WBeluj5auW7oqrWTnOyP-60" value="musicNo" style="edgeStyle=orthogonalEdgeStyle;rounded=0;orthogonalLoop=1;jettySize=auto;html=1;exitX=1;exitY=0.5;exitDx=0;exitDy=0;entryX=0;entryY=0.5;entryDx=0;entryDy=0;strokeColor=#000000;fontSize=20;fontColor=#000000;" parent="1" source="WBeluj5auW7oqrWTnOyP-11" target="WBeluj5auW7oqrWTnOyP-59" edge="1">
          <mxGeometry relative="1" as="geometry" />
        </mxCell>
        <mxCell id="WBeluj5auW7oqrWTnOyP-11" value="/detail[GET]&lt;br&gt;상세정보" style="rounded=0;whiteSpace=wrap;html=1;fontSize=20;" parent="1" vertex="1">
          <mxGeometry x="730" y="1180" width="155" height="60" as="geometry" />
        </mxCell>
        <mxCell id="WBeluj5auW7oqrWTnOyP-16" style="edgeStyle=orthogonalEdgeStyle;rounded=0;orthogonalLoop=1;jettySize=auto;html=1;exitX=0;exitY=0.75;exitDx=0;exitDy=0;entryX=1;entryY=0.75;entryDx=0;entryDy=0;fontSize=20;" parent="1" source="WBeluj5auW7oqrWTnOyP-14" target="tLdyOI6LnVIX3LAUtrd9-15" edge="1">
          <mxGeometry relative="1" as="geometry" />
        </mxCell>
        <mxCell id="WBeluj5auW7oqrWTnOyP-43" value="memberId" style="edgeStyle=orthogonalEdgeStyle;rounded=0;orthogonalLoop=1;jettySize=auto;html=1;exitX=0.25;exitY=1;exitDx=0;exitDy=0;entryX=0.75;entryY=0;entryDx=0;entryDy=0;strokeColor=#000000;fontSize=14;fontColor=#000000;" parent="1" source="WBeluj5auW7oqrWTnOyP-14" target="WBeluj5auW7oqrWTnOyP-39" edge="1">
          <mxGeometry relative="1" as="geometry" />
        </mxCell>
        <mxCell id="WBeluj5auW7oqrWTnOyP-63" value="memberId" style="edgeStyle=orthogonalEdgeStyle;rounded=0;orthogonalLoop=1;jettySize=auto;html=1;exitX=1;exitY=0.5;exitDx=0;exitDy=0;entryX=0;entryY=0.5;entryDx=0;entryDy=0;strokeColor=#000000;fontSize=20;fontColor=#000000;" parent="1" source="WBeluj5auW7oqrWTnOyP-14" target="WBeluj5auW7oqrWTnOyP-62" edge="1">
          <mxGeometry relative="1" as="geometry" />
        </mxCell>
        <mxCell id="WBeluj5auW7oqrWTnOyP-14" value="/detail[GET]&lt;br&gt;회원 상세정보" style="rounded=0;whiteSpace=wrap;html=1;fontSize=20;" parent="1" vertex="1">
          <mxGeometry x="732.5" y="3080" width="170" height="60" as="geometry" />
        </mxCell>
        <mxCell id="WBeluj5auW7oqrWTnOyP-20" value="no&lt;br style=&quot;font-size: 14px;&quot;&gt;name&lt;br style=&quot;font-size: 14px;&quot;&gt;type" style="edgeStyle=orthogonalEdgeStyle;rounded=0;orthogonalLoop=1;jettySize=auto;html=1;exitX=1;exitY=0.5;exitDx=0;exitDy=0;entryX=0;entryY=0.5;entryDx=0;entryDy=0;fontSize=14;" parent="1" source="WBeluj5auW7oqrWTnOyP-17" target="WBeluj5auW7oqrWTnOyP-18" edge="1">
          <mxGeometry relative="1" as="geometry" />
        </mxCell>
        <mxCell id="WBeluj5auW7oqrWTnOyP-17" value="/edit[GET]&lt;br&gt;수정(입력)" style="rounded=0;whiteSpace=wrap;html=1;fontSize=20;" parent="1" vertex="1">
          <mxGeometry x="425" y="-150" width="150" height="60" as="geometry" />
        </mxCell>
        <mxCell id="WBeluj5auW7oqrWTnOyP-21" value="redirect" style="edgeStyle=orthogonalEdgeStyle;rounded=0;orthogonalLoop=1;jettySize=auto;html=1;exitX=0.75;exitY=0;exitDx=0;exitDy=0;entryX=0.75;entryY=1;entryDx=0;entryDy=0;fontSize=20;fillColor=#f8cecc;strokeColor=#0000FF;fontColor=#0000FF;" parent="1" source="WBeluj5auW7oqrWTnOyP-18" target="WBeluj5auW7oqrWTnOyP-2" edge="1">
          <mxGeometry relative="1" as="geometry" />
        </mxCell>
        <mxCell id="WBeluj5auW7oqrWTnOyP-26" value="redirect" style="edgeStyle=orthogonalEdgeStyle;rounded=0;orthogonalLoop=1;jettySize=auto;html=1;strokeColor=#FF0000;fontSize=14;fontColor=#FF0000;" parent="1" source="WBeluj5auW7oqrWTnOyP-18" target="WBeluj5auW7oqrWTnOyP-25" edge="1">
          <mxGeometry relative="1" as="geometry" />
        </mxCell>
        <mxCell id="WBeluj5auW7oqrWTnOyP-18" value="/edit[POST]&lt;br&gt;수정(처리)" style="rounded=0;whiteSpace=wrap;html=1;fontSize=20;" parent="1" vertex="1">
          <mxGeometry x="700" y="-150" width="150" height="60" as="geometry" />
        </mxCell>
        <mxCell id="WBeluj5auW7oqrWTnOyP-23" value="수정" style="text;html=1;strokeColor=none;fillColor=none;align=center;verticalAlign=middle;whiteSpace=wrap;rounded=0;fontSize=20;" parent="1" vertex="1">
          <mxGeometry x="413" y="-200" width="60" height="30" as="geometry" />
        </mxCell>
        <mxCell id="WBeluj5auW7oqrWTnOyP-27" style="edgeStyle=orthogonalEdgeStyle;rounded=0;orthogonalLoop=1;jettySize=auto;html=1;exitX=0.5;exitY=0;exitDx=0;exitDy=0;entryX=0.5;entryY=1;entryDx=0;entryDy=0;strokeColor=#000000;fontSize=14;fontColor=#000000;" parent="1" source="WBeluj5auW7oqrWTnOyP-25" target="tLdyOI6LnVIX3LAUtrd9-3" edge="1">
          <mxGeometry relative="1" as="geometry">
            <Array as="points">
              <mxPoint x="1135" y="-260" />
              <mxPoint x="495" y="-260" />
            </Array>
          </mxGeometry>
        </mxCell>
        <mxCell id="WBeluj5auW7oqrWTnOyP-25" value="/edit_fail[GET]&lt;br&gt;수정 오류" style="rounded=0;whiteSpace=wrap;html=1;fontSize=20;" parent="1" vertex="1">
          <mxGeometry x="1060" y="-150" width="150" height="60" as="geometry" />
        </mxCell>
        <mxCell id="WBeluj5auW7oqrWTnOyP-31" value="no&lt;br style=&quot;font-size: 20px;&quot;&gt;name&lt;br style=&quot;font-size: 20px;&quot;&gt;memo" style="edgeStyle=orthogonalEdgeStyle;rounded=0;orthogonalLoop=1;jettySize=auto;html=1;exitX=1;exitY=0.5;exitDx=0;exitDy=0;entryX=0;entryY=0.5;entryDx=0;entryDy=0;strokeColor=#000000;fontSize=20;fontColor=#000000;" parent="1" source="WBeluj5auW7oqrWTnOyP-28" target="WBeluj5auW7oqrWTnOyP-29" edge="1">
          <mxGeometry relative="1" as="geometry" />
        </mxCell>
        <mxCell id="WBeluj5auW7oqrWTnOyP-28" value="/edit[GET]&lt;br&gt;수정 입력" style="rounded=0;whiteSpace=wrap;html=1;fontSize=20;" parent="1" vertex="1">
          <mxGeometry x="430" y="720" width="155" height="60" as="geometry" />
        </mxCell>
        <mxCell id="WBeluj5auW7oqrWTnOyP-32" style="edgeStyle=orthogonalEdgeStyle;rounded=0;orthogonalLoop=1;jettySize=auto;html=1;exitX=0.75;exitY=0;exitDx=0;exitDy=0;entryX=0.75;entryY=1;entryDx=0;entryDy=0;strokeColor=#000000;fontSize=14;fontColor=#000000;" parent="1" source="WBeluj5auW7oqrWTnOyP-29" target="WBeluj5auW7oqrWTnOyP-7" edge="1">
          <mxGeometry relative="1" as="geometry" />
        </mxCell>
        <mxCell id="WBeluj5auW7oqrWTnOyP-45" value="redirect" style="edgeStyle=orthogonalEdgeStyle;rounded=0;orthogonalLoop=1;jettySize=auto;html=1;exitX=1;exitY=0.5;exitDx=0;exitDy=0;entryX=0;entryY=0.5;entryDx=0;entryDy=0;strokeColor=#FF0000;fontSize=14;fontColor=#000000;fillColor=#f8cecc;" parent="1" source="WBeluj5auW7oqrWTnOyP-29" target="WBeluj5auW7oqrWTnOyP-44" edge="1">
          <mxGeometry relative="1" as="geometry" />
        </mxCell>
        <mxCell id="WBeluj5auW7oqrWTnOyP-29" value="/edit[POST]&lt;br&gt;수정 처리" style="rounded=0;whiteSpace=wrap;html=1;fontSize=20;" parent="1" vertex="1">
          <mxGeometry x="690" y="720" width="155" height="60" as="geometry" />
        </mxCell>
        <mxCell id="WBeluj5auW7oqrWTnOyP-36" value="MusicDto&lt;br&gt;번호,제목,가수,&lt;br&gt;앨범,발매일" style="edgeStyle=orthogonalEdgeStyle;rounded=0;orthogonalLoop=1;jettySize=auto;html=1;exitX=1;exitY=0.5;exitDx=0;exitDy=0;entryX=0;entryY=0.5;entryDx=0;entryDy=0;strokeColor=#000000;fontSize=14;fontColor=#000000;" parent="1" source="WBeluj5auW7oqrWTnOyP-34" target="WBeluj5auW7oqrWTnOyP-35" edge="1">
          <mxGeometry relative="1" as="geometry" />
        </mxCell>
        <mxCell id="WBeluj5auW7oqrWTnOyP-34" value="/edit[GET]&lt;br&gt;수정(입력)" style="rounded=0;whiteSpace=wrap;html=1;fontSize=20;" parent="1" vertex="1">
          <mxGeometry x="430" y="1330" width="130" height="60" as="geometry" />
        </mxCell>
        <mxCell id="WBeluj5auW7oqrWTnOyP-37" value="redirect" style="edgeStyle=orthogonalEdgeStyle;rounded=0;orthogonalLoop=1;jettySize=auto;html=1;exitX=0.5;exitY=0;exitDx=0;exitDy=0;entryX=0.5;entryY=1;entryDx=0;entryDy=0;strokeColor=#000000;fontSize=14;fontColor=#000000;" parent="1" source="WBeluj5auW7oqrWTnOyP-35" target="WBeluj5auW7oqrWTnOyP-11" edge="1">
          <mxGeometry relative="1" as="geometry" />
        </mxCell>
        <mxCell id="WBeluj5auW7oqrWTnOyP-47" value="redirect" style="edgeStyle=orthogonalEdgeStyle;rounded=0;orthogonalLoop=1;jettySize=auto;html=1;exitX=1;exitY=0.5;exitDx=0;exitDy=0;entryX=0;entryY=0.5;entryDx=0;entryDy=0;strokeColor=#FF0000;fontSize=20;fontColor=#000000;" parent="1" source="WBeluj5auW7oqrWTnOyP-35" target="WBeluj5auW7oqrWTnOyP-46" edge="1">
          <mxGeometry relative="1" as="geometry" />
        </mxCell>
        <mxCell id="WBeluj5auW7oqrWTnOyP-35" value="/edit[POST]&lt;br&gt;수정(처리)" style="rounded=0;whiteSpace=wrap;html=1;fontSize=20;" parent="1" vertex="1">
          <mxGeometry x="742.5" y="1330" width="130" height="60" as="geometry" />
        </mxCell>
        <mxCell id="WBeluj5auW7oqrWTnOyP-41" value="MemerDto&lt;br&gt;10개&lt;br&gt;가입일&lt;br&gt;접속일&lt;br&gt;비밀번호 &lt;br&gt;제외" style="edgeStyle=orthogonalEdgeStyle;rounded=0;orthogonalLoop=1;jettySize=auto;html=1;exitX=1;exitY=0.5;exitDx=0;exitDy=0;entryX=0;entryY=0.5;entryDx=0;entryDy=0;strokeColor=#000000;fontSize=14;fontColor=#000000;" parent="1" source="WBeluj5auW7oqrWTnOyP-39" target="WBeluj5auW7oqrWTnOyP-40" edge="1">
          <mxGeometry relative="1" as="geometry" />
        </mxCell>
        <mxCell id="WBeluj5auW7oqrWTnOyP-39" value="/change[GET]&lt;br&gt;정보 변경(입력)" style="rounded=0;whiteSpace=wrap;html=1;fontSize=20;" parent="1" vertex="1">
          <mxGeometry x="432.5" y="3210" width="170" height="60" as="geometry" />
        </mxCell>
        <mxCell id="WBeluj5auW7oqrWTnOyP-42" value="redirect" style="edgeStyle=orthogonalEdgeStyle;rounded=0;orthogonalLoop=1;jettySize=auto;html=1;exitX=0.75;exitY=0;exitDx=0;exitDy=0;entryX=0.75;entryY=1;entryDx=0;entryDy=0;strokeColor=#000000;fontSize=14;fontColor=#000000;" parent="1" source="WBeluj5auW7oqrWTnOyP-40" target="WBeluj5auW7oqrWTnOyP-14" edge="1">
          <mxGeometry relative="1" as="geometry" />
        </mxCell>
        <mxCell id="WBeluj5auW7oqrWTnOyP-50" value="redirect" style="edgeStyle=orthogonalEdgeStyle;rounded=0;orthogonalLoop=1;jettySize=auto;html=1;exitX=1;exitY=0.5;exitDx=0;exitDy=0;entryX=0;entryY=0.5;entryDx=0;entryDy=0;strokeColor=#FF0000;fontSize=20;fontColor=#000000;" parent="1" source="WBeluj5auW7oqrWTnOyP-40" target="WBeluj5auW7oqrWTnOyP-49" edge="1">
          <mxGeometry relative="1" as="geometry" />
        </mxCell>
        <mxCell id="WBeluj5auW7oqrWTnOyP-40" value="/change[POST]&lt;br&gt;정보 변경(처리)" style="rounded=0;whiteSpace=wrap;html=1;fontSize=20;" parent="1" vertex="1">
          <mxGeometry x="732.5" y="3210" width="170" height="60" as="geometry" />
        </mxCell>
        <mxCell id="WBeluj5auW7oqrWTnOyP-44" value="/edit_fail[GET]&lt;br&gt;수정 오류" style="rounded=0;whiteSpace=wrap;html=1;fontSize=20;" parent="1" vertex="1">
          <mxGeometry x="1057.5" y="720" width="155" height="60" as="geometry" />
        </mxCell>
        <mxCell id="WBeluj5auW7oqrWTnOyP-46" value="/edit_fail&lt;br&gt;수정 오류" style="rounded=0;whiteSpace=wrap;html=1;fontSize=20;" parent="1" vertex="1">
          <mxGeometry x="1030" y="1330" width="130" height="60" as="geometry" />
        </mxCell>
        <mxCell id="WBeluj5auW7oqrWTnOyP-49" value="/change_fail[GET]&lt;br&gt;수정 오류 알림" style="rounded=0;whiteSpace=wrap;html=1;fontSize=20;" parent="1" vertex="1">
          <mxGeometry x="1042.5" y="3210" width="170" height="60" as="geometry" />
        </mxCell>
        <mxCell id="WBeluj5auW7oqrWTnOyP-54" value="redirect" style="edgeStyle=orthogonalEdgeStyle;rounded=0;orthogonalLoop=1;jettySize=auto;html=1;exitX=0.5;exitY=0;exitDx=0;exitDy=0;entryX=0.75;entryY=0;entryDx=0;entryDy=0;strokeColor=#000000;fontSize=20;fontColor=#000000;" parent="1" source="WBeluj5auW7oqrWTnOyP-52" target="tLdyOI6LnVIX3LAUtrd9-3" edge="1">
          <mxGeometry relative="1" as="geometry" />
        </mxCell>
        <mxCell id="WBeluj5auW7oqrWTnOyP-52" value="/delete[GET]&lt;br&gt;몬스터 삭제" style="rounded=0;whiteSpace=wrap;html=1;fontSize=20;" parent="1" vertex="1">
          <mxGeometry x="1060" y="-350" width="150" height="60" as="geometry" />
        </mxCell>
        <mxCell id="WBeluj5auW7oqrWTnOyP-58" value="redirect" style="edgeStyle=orthogonalEdgeStyle;rounded=0;orthogonalLoop=1;jettySize=auto;html=1;exitX=0.5;exitY=0;exitDx=0;exitDy=0;entryX=0.75;entryY=0;entryDx=0;entryDy=0;strokeColor=#000000;fontSize=20;fontColor=#000000;" parent="1" source="WBeluj5auW7oqrWTnOyP-56" target="tLdyOI6LnVIX3LAUtrd9-5" edge="1">
          <mxGeometry relative="1" as="geometry">
            <Array as="points">
              <mxPoint x="1133" y="570" />
              <mxPoint x="528" y="570" />
            </Array>
          </mxGeometry>
        </mxCell>
        <mxCell id="WBeluj5auW7oqrWTnOyP-56" value="/delete[GET]&lt;br&gt;방명록 삭제" style="rounded=0;whiteSpace=wrap;html=1;fontSize=20;" parent="1" vertex="1">
          <mxGeometry x="1055" y="585" width="155" height="60" as="geometry" />
        </mxCell>
        <mxCell id="WBeluj5auW7oqrWTnOyP-61" value="redirect" style="edgeStyle=orthogonalEdgeStyle;rounded=0;orthogonalLoop=1;jettySize=auto;html=1;exitX=0.5;exitY=0;exitDx=0;exitDy=0;entryX=0.75;entryY=0;entryDx=0;entryDy=0;strokeColor=#000000;fontSize=20;fontColor=#000000;" parent="1" source="WBeluj5auW7oqrWTnOyP-59" target="tLdyOI6LnVIX3LAUtrd9-11" edge="1">
          <mxGeometry relative="1" as="geometry" />
        </mxCell>
        <mxCell id="WBeluj5auW7oqrWTnOyP-59" value="/delete[GET]&lt;br&gt;음원 삭제" style="rounded=0;whiteSpace=wrap;html=1;fontSize=20;" parent="1" vertex="1">
          <mxGeometry x="1030" y="1180" width="155" height="60" as="geometry" />
        </mxCell>
        <mxCell id="WBeluj5auW7oqrWTnOyP-64" value="redirect" style="edgeStyle=orthogonalEdgeStyle;rounded=0;orthogonalLoop=1;jettySize=auto;html=1;exitX=0.5;exitY=0;exitDx=0;exitDy=0;entryX=0.75;entryY=0;entryDx=0;entryDy=0;strokeColor=#000000;fontSize=20;fontColor=#000000;" parent="1" source="WBeluj5auW7oqrWTnOyP-62" target="tLdyOI6LnVIX3LAUtrd9-15" edge="1">
          <mxGeometry relative="1" as="geometry">
            <Array as="points">
              <mxPoint x="1125" y="3050" />
              <mxPoint x="560" y="3050" />
            </Array>
          </mxGeometry>
        </mxCell>
        <mxCell id="WBeluj5auW7oqrWTnOyP-62" value="/exit[GET]&lt;br&gt;회원 탈퇴" style="rounded=0;whiteSpace=wrap;html=1;fontSize=20;" parent="1" vertex="1">
          <mxGeometry x="1040" y="3080" width="170" height="60" as="geometry" />
        </mxCell>
        <mxCell id="WBeluj5auW7oqrWTnOyP-71" value="redirect" style="edgeStyle=orthogonalEdgeStyle;rounded=0;orthogonalLoop=1;jettySize=auto;html=1;strokeColor=#0000FF;fontSize=12;fontColor=#000000;" parent="1" source="WBeluj5auW7oqrWTnOyP-67" target="WBeluj5auW7oqrWTnOyP-70" edge="1">
          <mxGeometry relative="1" as="geometry" />
        </mxCell>
        <mxCell id="WBeluj5auW7oqrWTnOyP-72" value="redirect" style="edgeStyle=orthogonalEdgeStyle;rounded=0;orthogonalLoop=1;jettySize=auto;html=1;exitX=0;exitY=0.75;exitDx=0;exitDy=0;entryX=1;entryY=0.75;entryDx=0;entryDy=0;strokeColor=#FF0000;fontSize=12;fontColor=#000000;" parent="1" source="WBeluj5auW7oqrWTnOyP-67" target="tLdyOI6LnVIX3LAUtrd9-1" edge="1">
          <mxGeometry relative="1" as="geometry" />
        </mxCell>
        <mxCell id="WBeluj5auW7oqrWTnOyP-67" value="/login[POST]&lt;br&gt;로그인 판정" style="rounded=0;whiteSpace=wrap;html=1;fontSize=20;" parent="1" vertex="1">
          <mxGeometry x="742.5" y="2540" width="155" height="60" as="geometry" />
        </mxCell>
        <mxCell id="WBeluj5auW7oqrWTnOyP-70" value="홈" style="rounded=0;whiteSpace=wrap;html=1;fontSize=20;" parent="1" vertex="1">
          <mxGeometry x="980" y="2540" width="32.5" height="60" as="geometry" />
        </mxCell>
        <mxCell id="xfxCMn-exnxIlFrXd_NS-7" style="edgeStyle=orthogonalEdgeStyle;rounded=0;orthogonalLoop=1;jettySize=auto;html=1;exitX=0.5;exitY=1;exitDx=0;exitDy=0;entryX=0.5;entryY=0;entryDx=0;entryDy=0;" parent="1" source="xfxCMn-exnxIlFrXd_NS-1" target="xfxCMn-exnxIlFrXd_NS-4" edge="1">
          <mxGeometry relative="1" as="geometry" />
        </mxCell>
        <mxCell id="fyBXjDQ53O8Vk_kKT9iX-6" style="edgeStyle=orthogonalEdgeStyle;rounded=0;orthogonalLoop=1;jettySize=auto;html=1;exitX=0.25;exitY=1;exitDx=0;exitDy=0;entryX=0;entryY=0.5;entryDx=0;entryDy=0;strokeColor=#000000;fontSize=11;" parent="1" source="xfxCMn-exnxIlFrXd_NS-1" target="fyBXjDQ53O8Vk_kKT9iX-1" edge="1">
          <mxGeometry relative="1" as="geometry">
            <Array as="points">
              <mxPoint x="483" y="2730" />
              <mxPoint x="420" y="2730" />
              <mxPoint x="420" y="2890" />
            </Array>
          </mxGeometry>
        </mxCell>
        <mxCell id="3MtBi7XmlANeMtxRmCWt-7" style="edgeStyle=orthogonalEdgeStyle;rounded=0;orthogonalLoop=1;jettySize=auto;html=1;exitX=0.25;exitY=1;exitDx=0;exitDy=0;entryX=0;entryY=0.5;entryDx=0;entryDy=0;fontSize=13;" parent="1" source="xfxCMn-exnxIlFrXd_NS-1" target="3MtBi7XmlANeMtxRmCWt-3" edge="1">
          <mxGeometry relative="1" as="geometry">
            <Array as="points">
              <mxPoint x="482" y="2730" />
              <mxPoint x="420" y="2730" />
              <mxPoint x="420" y="2990" />
            </Array>
          </mxGeometry>
        </mxCell>
        <mxCell id="xfxCMn-exnxIlFrXd_NS-1" value="/mypage[GET]&lt;br&gt;내정보" style="rounded=0;whiteSpace=wrap;html=1;fontSize=20;" parent="1" vertex="1">
          <mxGeometry x="440" y="2650" width="170" height="60" as="geometry" />
        </mxCell>
        <mxCell id="xfxCMn-exnxIlFrXd_NS-6" value="기존비밀번호(beforePw)&lt;br&gt;신규비밀번호(afterPw)" style="edgeStyle=orthogonalEdgeStyle;rounded=0;orthogonalLoop=1;jettySize=auto;html=1;exitX=1;exitY=0.25;exitDx=0;exitDy=0;entryX=0;entryY=0.25;entryDx=0;entryDy=0;" parent="1" source="xfxCMn-exnxIlFrXd_NS-4" target="xfxCMn-exnxIlFrXd_NS-5" edge="1">
          <mxGeometry relative="1" as="geometry" />
        </mxCell>
        <mxCell id="xfxCMn-exnxIlFrXd_NS-4" value="/password[GET]&lt;br&gt;비밀번호 입력" style="rounded=0;whiteSpace=wrap;html=1;fontSize=20;" parent="1" vertex="1">
          <mxGeometry x="440" y="2750" width="170" height="60" as="geometry" />
        </mxCell>
        <mxCell id="xfxCMn-exnxIlFrXd_NS-8" value="redirect" style="edgeStyle=orthogonalEdgeStyle;rounded=0;orthogonalLoop=1;jettySize=auto;html=1;exitX=0;exitY=0.75;exitDx=0;exitDy=0;entryX=1;entryY=0.75;entryDx=0;entryDy=0;strokeColor=#FF0000;" parent="1" source="xfxCMn-exnxIlFrXd_NS-5" target="xfxCMn-exnxIlFrXd_NS-4" edge="1">
          <mxGeometry relative="1" as="geometry" />
        </mxCell>
        <mxCell id="xfxCMn-exnxIlFrXd_NS-11" value="redirect" style="edgeStyle=orthogonalEdgeStyle;rounded=0;orthogonalLoop=1;jettySize=auto;html=1;exitX=1;exitY=0.5;exitDx=0;exitDy=0;entryX=0;entryY=0.5;entryDx=0;entryDy=0;strokeColor=#0000FF;" parent="1" source="xfxCMn-exnxIlFrXd_NS-5" target="xfxCMn-exnxIlFrXd_NS-10" edge="1">
          <mxGeometry relative="1" as="geometry" />
        </mxCell>
        <mxCell id="xfxCMn-exnxIlFrXd_NS-5" value="/password[POST]&lt;br&gt;비밀번호 변경" style="rounded=0;whiteSpace=wrap;html=1;fontSize=20;" parent="1" vertex="1">
          <mxGeometry x="770" y="2750" width="170" height="60" as="geometry" />
        </mxCell>
        <mxCell id="xfxCMn-exnxIlFrXd_NS-12" style="edgeStyle=orthogonalEdgeStyle;rounded=0;orthogonalLoop=1;jettySize=auto;html=1;exitX=0.5;exitY=0;exitDx=0;exitDy=0;entryX=0.75;entryY=1;entryDx=0;entryDy=0;strokeColor=#000000;" parent="1" source="xfxCMn-exnxIlFrXd_NS-10" target="xfxCMn-exnxIlFrXd_NS-1" edge="1">
          <mxGeometry relative="1" as="geometry">
            <Array as="points">
              <mxPoint x="1120" y="2720" />
              <mxPoint x="568" y="2720" />
            </Array>
          </mxGeometry>
        </mxCell>
        <mxCell id="xfxCMn-exnxIlFrXd_NS-14" style="edgeStyle=orthogonalEdgeStyle;rounded=0;orthogonalLoop=1;jettySize=auto;html=1;exitX=0.5;exitY=0;exitDx=0;exitDy=0;entryX=1;entryY=0.75;entryDx=0;entryDy=0;strokeColor=#000000;" parent="1" source="xfxCMn-exnxIlFrXd_NS-10" target="WBeluj5auW7oqrWTnOyP-70" edge="1">
          <mxGeometry relative="1" as="geometry">
            <Array as="points">
              <mxPoint x="1120" y="2585" />
            </Array>
          </mxGeometry>
        </mxCell>
        <mxCell id="xfxCMn-exnxIlFrXd_NS-10" value="/password_result[GET]&lt;br&gt;비밀번호 변경 완료 알림" style="rounded=0;whiteSpace=wrap;html=1;fontSize=20;" parent="1" vertex="1">
          <mxGeometry x="1010" y="2750" width="220" height="60" as="geometry" />
        </mxCell>
        <mxCell id="fyBXjDQ53O8Vk_kKT9iX-3" value="비밀번호 포함한&lt;br style=&quot;font-size: 13px;&quot;&gt;개인정보(총 9개)" style="edgeStyle=orthogonalEdgeStyle;rounded=0;orthogonalLoop=1;jettySize=auto;html=1;exitX=1;exitY=0.25;exitDx=0;exitDy=0;entryX=0;entryY=0.25;entryDx=0;entryDy=0;fontSize=13;" parent="1" source="fyBXjDQ53O8Vk_kKT9iX-1" target="fyBXjDQ53O8Vk_kKT9iX-2" edge="1">
          <mxGeometry relative="1" as="geometry" />
        </mxCell>
        <mxCell id="fyBXjDQ53O8Vk_kKT9iX-1" value="/information[GET]&lt;br style=&quot;font-size: 17px;&quot;&gt;개인정보 변경 입력" style="rounded=0;whiteSpace=wrap;html=1;fontSize=17;" parent="1" vertex="1">
          <mxGeometry x="440" y="2860" width="170" height="60" as="geometry" />
        </mxCell>
        <mxCell id="fyBXjDQ53O8Vk_kKT9iX-4" value="redirect" style="edgeStyle=orthogonalEdgeStyle;rounded=0;orthogonalLoop=1;jettySize=auto;html=1;exitX=1;exitY=0.5;exitDx=0;exitDy=0;entryX=0.75;entryY=1;entryDx=0;entryDy=0;fontSize=12;strokeColor=#0000FF;" parent="1" source="fyBXjDQ53O8Vk_kKT9iX-2" target="xfxCMn-exnxIlFrXd_NS-1" edge="1">
          <mxGeometry relative="1" as="geometry">
            <Array as="points">
              <mxPoint x="950" y="2890" />
              <mxPoint x="950" y="2730" />
              <mxPoint x="568" y="2730" />
            </Array>
          </mxGeometry>
        </mxCell>
        <mxCell id="fyBXjDQ53O8Vk_kKT9iX-5" value="redirect" style="edgeStyle=orthogonalEdgeStyle;rounded=0;orthogonalLoop=1;jettySize=auto;html=1;exitX=0;exitY=0.75;exitDx=0;exitDy=0;entryX=1;entryY=0.75;entryDx=0;entryDy=0;strokeColor=#FF0000;fontSize=11;fillColor=#f8cecc;" parent="1" source="fyBXjDQ53O8Vk_kKT9iX-2" target="fyBXjDQ53O8Vk_kKT9iX-1" edge="1">
          <mxGeometry relative="1" as="geometry" />
        </mxCell>
        <mxCell id="fyBXjDQ53O8Vk_kKT9iX-2" value="/information[POST]&lt;br style=&quot;font-size: 17px;&quot;&gt;개인정보 변경 처리" style="rounded=0;whiteSpace=wrap;html=1;fontSize=17;" parent="1" vertex="1">
          <mxGeometry x="770" y="2860" width="170" height="60" as="geometry" />
        </mxCell>
        <mxCell id="3MtBi7XmlANeMtxRmCWt-5" value="비밀번호" style="edgeStyle=orthogonalEdgeStyle;rounded=0;orthogonalLoop=1;jettySize=auto;html=1;exitX=1;exitY=0.25;exitDx=0;exitDy=0;entryX=0;entryY=0.25;entryDx=0;entryDy=0;fontSize=13;" parent="1" source="3MtBi7XmlANeMtxRmCWt-3" target="3MtBi7XmlANeMtxRmCWt-4" edge="1">
          <mxGeometry relative="1" as="geometry" />
        </mxCell>
        <mxCell id="3MtBi7XmlANeMtxRmCWt-3" value="/goodbye[GET]&lt;br&gt;비밀번호 입력" style="rounded=0;whiteSpace=wrap;html=1;fontSize=20;" parent="1" vertex="1">
          <mxGeometry x="440" y="2960" width="170" height="60" as="geometry" />
        </mxCell>
        <mxCell id="3MtBi7XmlANeMtxRmCWt-9" value="redirect" style="edgeStyle=orthogonalEdgeStyle;rounded=0;orthogonalLoop=1;jettySize=auto;html=1;exitX=1;exitY=0.5;exitDx=0;exitDy=0;entryX=0;entryY=0.5;entryDx=0;entryDy=0;fontSize=13;strokeColor=#0000FF;" parent="1" source="3MtBi7XmlANeMtxRmCWt-4" target="3MtBi7XmlANeMtxRmCWt-8" edge="1">
          <mxGeometry relative="1" as="geometry" />
        </mxCell>
        <mxCell id="3MtBi7XmlANeMtxRmCWt-4" value="&lt;font style=&quot;font-size: 13px;&quot;&gt;/goodbye[POST]&lt;br style=&quot;font-size: 13px;&quot;&gt;비밀번호 검사 및 &lt;br style=&quot;font-size: 13px;&quot;&gt;탈퇴+로그아웃 처리&lt;/font&gt;" style="rounded=0;whiteSpace=wrap;html=1;fontSize=13;" parent="1" vertex="1">
          <mxGeometry x="770" y="2960" width="170" height="60" as="geometry" />
        </mxCell>
        <mxCell id="3MtBi7XmlANeMtxRmCWt-6" value="redirect" style="edgeStyle=orthogonalEdgeStyle;rounded=0;orthogonalLoop=1;jettySize=auto;html=1;exitX=0;exitY=0.75;exitDx=0;exitDy=0;entryX=1;entryY=0.75;entryDx=0;entryDy=0;strokeColor=#FF0000;fontSize=11;fillColor=#f8cecc;" parent="1" source="3MtBi7XmlANeMtxRmCWt-4" target="3MtBi7XmlANeMtxRmCWt-3" edge="1">
          <mxGeometry relative="1" as="geometry">
            <mxPoint x="780" y="2915" as="sourcePoint" />
            <mxPoint x="620" y="2915" as="targetPoint" />
          </mxGeometry>
        </mxCell>
        <mxCell id="3MtBi7XmlANeMtxRmCWt-10" style="edgeStyle=orthogonalEdgeStyle;rounded=0;orthogonalLoop=1;jettySize=auto;html=1;exitX=0.5;exitY=0;exitDx=0;exitDy=0;entryX=0.5;entryY=1;entryDx=0;entryDy=0;strokeColor=#000000;fontSize=13;" parent="1" source="3MtBi7XmlANeMtxRmCWt-8" target="WBeluj5auW7oqrWTnOyP-70" edge="1">
          <mxGeometry relative="1" as="geometry">
            <Array as="points">
              <mxPoint x="1130" y="2900" />
              <mxPoint x="996" y="2900" />
            </Array>
          </mxGeometry>
        </mxCell>
        <mxCell id="3MtBi7XmlANeMtxRmCWt-8" value="/goodbye_result[GET]&lt;br&gt;탈퇴 완료 안내" style="rounded=0;whiteSpace=wrap;html=1;fontSize=20;" parent="1" vertex="1">
          <mxGeometry x="1030" y="2960" width="200" height="60" as="geometry" />
        </mxCell>
        <mxCell id="3MtBi7XmlANeMtxRmCWt-11" value="" style="edgeStyle=orthogonalEdgeStyle;rounded=0;orthogonalLoop=1;jettySize=auto;html=1;exitX=1;exitY=0.5;exitDx=0;exitDy=0;entryX=0;entryY=0.5;entryDx=0;entryDy=0;fontSize=20;fontColor=#000000;strokeColor=#000000;endArrow=none;" parent="1" source="oXbdgaAhtaBAxmXEic1q-4" target="FwMJxgxvuYq8EWC6jKZR-33" edge="1">
          <mxGeometry relative="1" as="geometry">
            <Array as="points">
              <mxPoint x="363" y="200" />
              <mxPoint x="363" y="2835" />
            </Array>
            <mxPoint x="335" y="200" as="sourcePoint" />
            <mxPoint x="440" y="2435" as="targetPoint" />
          </mxGeometry>
        </mxCell>
        <mxCell id="3MtBi7XmlANeMtxRmCWt-12" value="" style="rounded=0;whiteSpace=wrap;html=1;fontSize=13;" parent="1" vertex="1">
          <mxGeometry x="390" y="3380" width="860" height="500" as="geometry" />
        </mxCell>
        <mxCell id="3MtBi7XmlANeMtxRmCWt-13" value="관리자 기능(/admin)" style="text;html=1;strokeColor=none;fillColor=none;align=center;verticalAlign=middle;whiteSpace=wrap;rounded=0;fontSize=13;" parent="1" vertex="1">
          <mxGeometry x="390" y="3350" width="120" height="30" as="geometry" />
        </mxCell>
        <mxCell id="3MtBi7XmlANeMtxRmCWt-16" value="" style="edgeStyle=orthogonalEdgeStyle;rounded=0;orthogonalLoop=1;jettySize=auto;html=1;strokeColor=#000000;fontSize=13;" parent="1" source="3MtBi7XmlANeMtxRmCWt-14" target="3MtBi7XmlANeMtxRmCWt-15" edge="1">
          <mxGeometry relative="1" as="geometry" />
        </mxCell>
        <mxCell id="3MtBi7XmlANeMtxRmCWt-17" style="edgeStyle=orthogonalEdgeStyle;rounded=0;orthogonalLoop=1;jettySize=auto;html=1;exitX=0;exitY=0.25;exitDx=0;exitDy=0;entryX=0;entryY=0.5;entryDx=0;entryDy=0;strokeColor=#000000;fontSize=13;" parent="1" source="3MtBi7XmlANeMtxRmCWt-14" target="tLdyOI6LnVIX3LAUtrd9-15" edge="1">
          <mxGeometry relative="1" as="geometry" />
        </mxCell>
        <mxCell id="3MtBi7XmlANeMtxRmCWt-19" value="" style="edgeStyle=orthogonalEdgeStyle;rounded=0;orthogonalLoop=1;jettySize=auto;html=1;strokeColor=#000000;fontSize=13;entryX=0;entryY=0.5;entryDx=0;entryDy=0;" parent="1" source="3MtBi7XmlANeMtxRmCWt-14" target="3MtBi7XmlANeMtxRmCWt-18" edge="1">
          <mxGeometry relative="1" as="geometry" />
        </mxCell>
        <mxCell id="3MtBi7XmlANeMtxRmCWt-14" value="/home[GET]&lt;br&gt;관리자 메인" style="rounded=0;whiteSpace=wrap;html=1;fontSize=20;" parent="1" vertex="1">
          <mxGeometry x="432.5" y="3447" width="170" height="60" as="geometry" />
        </mxCell>
        <mxCell id="3MtBi7XmlANeMtxRmCWt-15" value="/pocketmon&lt;br&gt;포켓몬스터 현황" style="rounded=0;whiteSpace=wrap;html=1;fontSize=20;" parent="1" vertex="1">
          <mxGeometry x="735" y="3447" width="170" height="60" as="geometry" />
        </mxCell>
        <mxCell id="3MtBi7XmlANeMtxRmCWt-21" value="" style="edgeStyle=orthogonalEdgeStyle;rounded=0;orthogonalLoop=1;jettySize=auto;html=1;strokeColor=#000000;fontSize=13;exitX=1;exitY=0.5;exitDx=0;exitDy=0;entryX=0;entryY=0.5;entryDx=0;entryDy=0;" parent="1" source="3MtBi7XmlANeMtxRmCWt-14" target="3MtBi7XmlANeMtxRmCWt-20" edge="1">
          <mxGeometry relative="1" as="geometry" />
        </mxCell>
        <mxCell id="3MtBi7XmlANeMtxRmCWt-18" value="/music/play&lt;br&gt;인기 음원 순위" style="rounded=0;whiteSpace=wrap;html=1;fontSize=20;" parent="1" vertex="1">
          <mxGeometry x="735" y="3590" width="170" height="60" as="geometry" />
        </mxCell>
        <mxCell id="3MtBi7XmlANeMtxRmCWt-20" value="/music/release&lt;br&gt;연도별 발매 현황" style="rounded=0;whiteSpace=wrap;html=1;fontSize=20;" parent="1" vertex="1">
          <mxGeometry x="735" y="3730" width="170" height="60" as="geometry" />
        </mxCell>
        <mxCell id="XKzR3t1UuBaWKu46-JBd-2" value="&lt;h1&gt;게시판(/board)&lt;/h1&gt;" style="text;html=1;strokeColor=none;fillColor=none;spacing=5;spacingTop=-20;whiteSpace=wrap;overflow=hidden;rounded=0;fontSize=20;fontColor=#000000;" parent="1" vertex="1">
          <mxGeometry x="-843" y="280" width="370" height="80" as="geometry" />
        </mxCell>
        <mxCell id="XKzR3t1UuBaWKu46-JBd-6" value="boardNo" style="edgeStyle=orthogonalEdgeStyle;rounded=0;orthogonalLoop=1;jettySize=auto;html=1;exitX=0.5;exitY=1;exitDx=0;exitDy=0;entryX=0.5;entryY=0;entryDx=0;entryDy=0;strokeColor=#000000;fontSize=13;" parent="1" source="XKzR3t1UuBaWKu46-JBd-3" target="XKzR3t1UuBaWKu46-JBd-5" edge="1">
          <mxGeometry relative="1" as="geometry" />
        </mxCell>
        <mxCell id="XKzR3t1UuBaWKu46-JBd-8" value="새글" style="edgeStyle=orthogonalEdgeStyle;rounded=0;orthogonalLoop=1;jettySize=auto;html=1;exitX=0;exitY=0.5;exitDx=0;exitDy=0;entryX=1;entryY=0.5;entryDx=0;entryDy=0;strokeColor=#000000;fontSize=11;" parent="1" source="XKzR3t1UuBaWKu46-JBd-3" target="XKzR3t1UuBaWKu46-JBd-7" edge="1">
          <mxGeometry relative="1" as="geometry" />
        </mxCell>
        <mxCell id="XKzR3t1UuBaWKu46-JBd-3" value="/list[GET]&lt;br&gt;게시판 목록" style="rounded=0;whiteSpace=wrap;html=1;fontSize=20;" parent="1" vertex="1">
          <mxGeometry x="-490" y="470" width="130" height="60" as="geometry" />
        </mxCell>
        <mxCell id="XKzR3t1UuBaWKu46-JBd-13" value="boardNo" style="edgeStyle=orthogonalEdgeStyle;rounded=0;orthogonalLoop=1;jettySize=auto;html=1;exitX=0.75;exitY=0;exitDx=0;exitDy=0;entryX=0;entryY=0.5;entryDx=0;entryDy=0;strokeColor=#000000;fontSize=13;" parent="1" source="XKzR3t1UuBaWKu46-JBd-5" target="XKzR3t1UuBaWKu46-JBd-12" edge="1">
          <mxGeometry relative="1" as="geometry" />
        </mxCell>
        <mxCell id="XKzR3t1UuBaWKu46-JBd-17" value="boardNo" style="edgeStyle=orthogonalEdgeStyle;rounded=0;orthogonalLoop=1;jettySize=auto;html=1;exitX=0.25;exitY=1;exitDx=0;exitDy=0;entryX=0.5;entryY=0;entryDx=0;entryDy=0;strokeColor=#000000;fontSize=13;" parent="1" source="XKzR3t1UuBaWKu46-JBd-5" target="XKzR3t1UuBaWKu46-JBd-15" edge="1">
          <mxGeometry relative="1" as="geometry">
            <Array as="points">
              <mxPoint x="-457" y="900" />
              <mxPoint x="-457" y="1080" />
            </Array>
          </mxGeometry>
        </mxCell>
        <mxCell id="b9e8jBwT7ERd70_7LjdS-1" value="새글" style="edgeStyle=orthogonalEdgeStyle;rounded=0;orthogonalLoop=1;jettySize=auto;html=1;exitX=0;exitY=0.25;exitDx=0;exitDy=0;entryX=1;entryY=1;entryDx=0;entryDy=0;" parent="1" source="XKzR3t1UuBaWKu46-JBd-5" target="XKzR3t1UuBaWKu46-JBd-7" edge="1">
          <mxGeometry relative="1" as="geometry">
            <Array as="points">
              <mxPoint x="-560" y="665" />
              <mxPoint x="-560" y="530" />
            </Array>
          </mxGeometry>
        </mxCell>
        <mxCell id="b9e8jBwT7ERd70_7LjdS-4" value="답글&lt;br&gt;부모글번호&lt;br&gt;boardParent" style="edgeStyle=orthogonalEdgeStyle;rounded=0;orthogonalLoop=1;jettySize=auto;html=1;exitX=0;exitY=0;exitDx=0;exitDy=0;entryX=1;entryY=0.75;entryDx=0;entryDy=0;fontColor=#FF0000;strokeColor=#FF0000;" parent="1" source="XKzR3t1UuBaWKu46-JBd-5" target="XKzR3t1UuBaWKu46-JBd-7" edge="1">
          <mxGeometry x="-0.2157" relative="1" as="geometry">
            <Array as="points">
              <mxPoint x="-520" y="650" />
              <mxPoint x="-520" y="515" />
            </Array>
            <mxPoint as="offset" />
          </mxGeometry>
        </mxCell>
        <mxCell id="b9e8jBwT7ERd70_7LjdS-7" value="내용,원본글번호" style="edgeStyle=orthogonalEdgeStyle;rounded=0;orthogonalLoop=1;jettySize=auto;html=1;exitX=1;exitY=0.25;exitDx=0;exitDy=0;entryX=0;entryY=0.25;entryDx=0;entryDy=0;strokeColor=#0000FF;fontSize=11;fontColor=#000000;" parent="1" source="XKzR3t1UuBaWKu46-JBd-5" target="b9e8jBwT7ERd70_7LjdS-6" edge="1">
          <mxGeometry x="0.3103" y="15" relative="1" as="geometry">
            <Array as="points">
              <mxPoint x="-330" y="660" />
              <mxPoint x="-330" y="625" />
            </Array>
            <mxPoint as="offset" />
          </mxGeometry>
        </mxCell>
        <mxCell id="b9e8jBwT7ERd70_7LjdS-10" value="댓글번호&lt;br&gt;내용&lt;br&gt;원본글번호" style="edgeStyle=orthogonalEdgeStyle;rounded=0;orthogonalLoop=1;jettySize=auto;html=1;exitX=1;exitY=0.25;exitDx=0;exitDy=0;entryX=0;entryY=0.25;entryDx=0;entryDy=0;strokeColor=#0000FF;fontSize=11;fontColor=#000000;" parent="1" source="XKzR3t1UuBaWKu46-JBd-5" target="b9e8jBwT7ERd70_7LjdS-9" edge="1">
          <mxGeometry x="0.3846" y="15" relative="1" as="geometry">
            <Array as="points">
              <mxPoint x="-330" y="660" />
              <mxPoint x="-330" y="705" />
            </Array>
            <mxPoint as="offset" />
          </mxGeometry>
        </mxCell>
        <mxCell id="b9e8jBwT7ERd70_7LjdS-13" value="댓글번호&lt;br&gt;원본글번호" style="edgeStyle=orthogonalEdgeStyle;rounded=0;orthogonalLoop=1;jettySize=auto;html=1;exitX=1;exitY=0.25;exitDx=0;exitDy=0;entryX=0;entryY=0.25;entryDx=0;entryDy=0;strokeColor=#0000FF;fontSize=11;fontColor=#000000;" parent="1" source="XKzR3t1UuBaWKu46-JBd-5" target="b9e8jBwT7ERd70_7LjdS-12" edge="1">
          <mxGeometry x="-0.0545" y="-10" relative="1" as="geometry">
            <Array as="points">
              <mxPoint x="-330" y="660" />
              <mxPoint x="-330" y="785" />
            </Array>
            <mxPoint as="offset" />
          </mxGeometry>
        </mxCell>
        <mxCell id="sMHF00W2EQUUvReQG8Md-5" value="댓글번호&lt;br&gt;원본글번호" style="edgeStyle=orthogonalEdgeStyle;rounded=0;orthogonalLoop=1;jettySize=auto;html=1;exitX=0.75;exitY=1;exitDx=0;exitDy=0;entryX=0;entryY=0.5;entryDx=0;entryDy=0;" edge="1" parent="1" source="XKzR3t1UuBaWKu46-JBd-5" target="sMHF00W2EQUUvReQG8Md-4">
          <mxGeometry relative="1" as="geometry" />
        </mxCell>
        <mxCell id="sMHF00W2EQUUvReQG8Md-9" value="글번호" style="edgeStyle=orthogonalEdgeStyle;rounded=0;orthogonalLoop=1;jettySize=auto;html=1;exitX=0;exitY=0.75;exitDx=0;exitDy=0;entryX=1;entryY=0.25;entryDx=0;entryDy=0;" edge="1" parent="1" source="XKzR3t1UuBaWKu46-JBd-5" target="sMHF00W2EQUUvReQG8Md-8">
          <mxGeometry relative="1" as="geometry" />
        </mxCell>
        <mxCell id="XKzR3t1UuBaWKu46-JBd-5" value="/detail[GET]&lt;br style=&quot;font-size: 11px;&quot;&gt;게시글 상세&lt;br style=&quot;font-size: 11px;&quot;&gt;댓글 목록&lt;br&gt;댓글 작성/수정 입력&lt;br&gt;댓글 삭제 버튼" style="rounded=0;whiteSpace=wrap;html=1;fontSize=11;" parent="1" vertex="1">
          <mxGeometry x="-490" y="640" width="130" height="80" as="geometry" />
        </mxCell>
        <mxCell id="XKzR3t1UuBaWKu46-JBd-10" value="제목, 말머리, 내용&lt;br&gt;(+부모글번호)" style="edgeStyle=orthogonalEdgeStyle;rounded=0;orthogonalLoop=1;jettySize=auto;html=1;exitX=0.5;exitY=1;exitDx=0;exitDy=0;entryX=0.5;entryY=0;entryDx=0;entryDy=0;strokeColor=#000000;fontSize=13;" parent="1" source="XKzR3t1UuBaWKu46-JBd-7" target="XKzR3t1UuBaWKu46-JBd-9" edge="1">
          <mxGeometry relative="1" as="geometry" />
        </mxCell>
        <mxCell id="XKzR3t1UuBaWKu46-JBd-7" value="/write[GET]&lt;br&gt;게시글 작성" style="rounded=0;whiteSpace=wrap;html=1;fontSize=20;" parent="1" vertex="1">
          <mxGeometry x="-740" y="470" width="130" height="60" as="geometry" />
        </mxCell>
        <mxCell id="b9e8jBwT7ERd70_7LjdS-2" value="boardNo" style="edgeStyle=orthogonalEdgeStyle;rounded=0;orthogonalLoop=1;jettySize=auto;html=1;exitX=1;exitY=0.5;exitDx=0;exitDy=0;entryX=0;entryY=0.5;entryDx=0;entryDy=0;" parent="1" source="XKzR3t1UuBaWKu46-JBd-9" target="XKzR3t1UuBaWKu46-JBd-5" edge="1">
          <mxGeometry relative="1" as="geometry" />
        </mxCell>
        <mxCell id="XKzR3t1UuBaWKu46-JBd-9" value="/write[POST]&lt;br&gt;게시글 작성" style="rounded=0;whiteSpace=wrap;html=1;fontSize=20;" parent="1" vertex="1">
          <mxGeometry x="-740" y="650" width="130" height="60" as="geometry" />
        </mxCell>
        <mxCell id="XKzR3t1UuBaWKu46-JBd-14" value="redirect" style="edgeStyle=orthogonalEdgeStyle;rounded=0;orthogonalLoop=1;jettySize=auto;html=1;exitX=0.5;exitY=0;exitDx=0;exitDy=0;entryX=1;entryY=0.5;entryDx=0;entryDy=0;strokeColor=#000000;fontSize=13;" parent="1" source="XKzR3t1UuBaWKu46-JBd-12" target="XKzR3t1UuBaWKu46-JBd-3" edge="1">
          <mxGeometry relative="1" as="geometry" />
        </mxCell>
        <mxCell id="XKzR3t1UuBaWKu46-JBd-12" value="/delete[GET]&lt;br&gt;게시글 삭제" style="rounded=0;whiteSpace=wrap;html=1;fontSize=20;" parent="1" vertex="1">
          <mxGeometry x="-250" y="530" width="130" height="60" as="geometry" />
        </mxCell>
        <mxCell id="XKzR3t1UuBaWKu46-JBd-18" value="번호&lt;br&gt;말머리&lt;br&gt;제목&lt;br&gt;내용" style="edgeStyle=orthogonalEdgeStyle;rounded=0;orthogonalLoop=1;jettySize=auto;html=1;exitX=1;exitY=0.5;exitDx=0;exitDy=0;entryX=0;entryY=0.5;entryDx=0;entryDy=0;strokeColor=#000000;fontSize=13;" parent="1" source="XKzR3t1UuBaWKu46-JBd-15" target="XKzR3t1UuBaWKu46-JBd-16" edge="1">
          <mxGeometry relative="1" as="geometry" />
        </mxCell>
        <mxCell id="XKzR3t1UuBaWKu46-JBd-15" value="/edit[GET]&lt;br&gt;게시글 수정" style="rounded=0;whiteSpace=wrap;html=1;fontSize=20;" parent="1" vertex="1">
          <mxGeometry x="-520" y="1080" width="130" height="60" as="geometry" />
        </mxCell>
        <mxCell id="XKzR3t1UuBaWKu46-JBd-19" value="redirect &lt;br&gt;boardNo" style="edgeStyle=orthogonalEdgeStyle;rounded=0;orthogonalLoop=1;jettySize=auto;html=1;exitX=0.5;exitY=0;exitDx=0;exitDy=0;entryX=0.5;entryY=1;entryDx=0;entryDy=0;strokeColor=#000000;fontSize=13;" parent="1" source="XKzR3t1UuBaWKu46-JBd-16" target="XKzR3t1UuBaWKu46-JBd-5" edge="1">
          <mxGeometry x="0.2727" relative="1" as="geometry">
            <Array as="points">
              <mxPoint x="-145" y="990" />
              <mxPoint x="-425" y="990" />
            </Array>
            <mxPoint as="offset" />
          </mxGeometry>
        </mxCell>
        <mxCell id="XKzR3t1UuBaWKu46-JBd-16" value="/edit[POST]&lt;br&gt;게시글 수정" style="rounded=0;whiteSpace=wrap;html=1;fontSize=20;" parent="1" vertex="1">
          <mxGeometry x="-210" y="1080" width="130" height="60" as="geometry" />
        </mxCell>
        <mxCell id="b9e8jBwT7ERd70_7LjdS-3" value="회원이 공지사항을 등록하는 경우를 차단해야함&lt;br&gt;1. 해당 컨트롤러 매핑에서 차단하도록 코드 구현(OOP)&lt;br&gt;2. 별도의 검사 인터셉터를 구현해서 적용(AOP)&lt;br&gt;-&amp;gt; 회원등급이 관리자가 아닌데 공지사항을 작성하는 경우&lt;br&gt;-&amp;gt; 관리자면 통과, 아니면 403 error 발생&lt;br&gt;" style="text;html=1;strokeColor=none;fillColor=none;align=left;verticalAlign=top;whiteSpace=wrap;rounded=0;fontColor=#FF0000;" parent="1" vertex="1">
          <mxGeometry x="-843" y="720" width="310" height="90" as="geometry" />
        </mxCell>
        <mxCell id="b9e8jBwT7ERd70_7LjdS-5" value="&lt;div&gt;&lt;font color=&quot;#000000&quot;&gt;&amp;lt;계층형 게시판&amp;gt;&lt;/font&gt;&lt;/div&gt;&lt;div&gt;&lt;font color=&quot;#000000&quot;&gt;새글 - 기존에 작성하던 게시글&lt;/font&gt;&lt;/div&gt;&lt;div&gt;&lt;font color=&quot;#000000&quot;&gt;번호 - 시퀀스&lt;/font&gt;&lt;/div&gt;&lt;div&gt;&lt;font color=&quot;#000000&quot;&gt;그룹 - 번호와 동일&lt;/font&gt;&lt;/div&gt;&lt;div&gt;&lt;font color=&quot;#000000&quot;&gt;부모 - 0&lt;/font&gt;&lt;/div&gt;&lt;div&gt;&lt;font color=&quot;#000000&quot;&gt;차수 - 0&lt;/font&gt;&lt;/div&gt;&lt;div&gt;&lt;font color=&quot;#000000&quot;&gt;&lt;br&gt;&lt;/font&gt;&lt;/div&gt;&lt;div&gt;&lt;font color=&quot;#000000&quot;&gt;답글 - 새글 혹은 같은 그룹에 있는 글에 달리는 타겟형 게시글&lt;/font&gt;&lt;/div&gt;&lt;div&gt;&lt;font color=&quot;#000000&quot;&gt;번호 - 시퀀스&lt;/font&gt;&lt;/div&gt;&lt;div&gt;&lt;font color=&quot;#000000&quot;&gt;그룹 - 부모글과 동일&lt;/font&gt;&lt;/div&gt;&lt;div&gt;&lt;font color=&quot;#000000&quot;&gt;부모 - 부모글의 번호&lt;/font&gt;&lt;/div&gt;&lt;div&gt;&lt;font color=&quot;#000000&quot;&gt;차수 - 부모글의 차수 + 1&lt;/font&gt;&lt;/div&gt;" style="text;html=1;strokeColor=none;fillColor=none;align=left;verticalAlign=middle;whiteSpace=wrap;rounded=0;fontColor=#FF0000;" parent="1" vertex="1">
          <mxGeometry x="-827" y="90" width="397" height="190" as="geometry" />
        </mxCell>
        <mxCell id="b9e8jBwT7ERd70_7LjdS-8" value="boardNo" style="edgeStyle=orthogonalEdgeStyle;rounded=0;orthogonalLoop=1;jettySize=auto;html=1;exitX=0;exitY=0.5;exitDx=0;exitDy=0;entryX=1;entryY=0.5;entryDx=0;entryDy=0;strokeColor=#FF0000;fontSize=11;fontColor=#000000;" parent="1" source="b9e8jBwT7ERd70_7LjdS-6" target="XKzR3t1UuBaWKu46-JBd-5" edge="1">
          <mxGeometry x="-0.6" y="10" relative="1" as="geometry">
            <Array as="points">
              <mxPoint x="-310" y="640" />
              <mxPoint x="-310" y="680" />
            </Array>
            <mxPoint as="offset" />
          </mxGeometry>
        </mxCell>
        <mxCell id="b9e8jBwT7ERd70_7LjdS-6" value="/reply/write[POST]&lt;br&gt;댓글 등록" style="rounded=0;whiteSpace=wrap;html=1;fontSize=20;" parent="1" vertex="1">
          <mxGeometry x="-210" y="610" width="190" height="60" as="geometry" />
        </mxCell>
        <mxCell id="b9e8jBwT7ERd70_7LjdS-11" style="edgeStyle=orthogonalEdgeStyle;rounded=0;orthogonalLoop=1;jettySize=auto;html=1;exitX=0;exitY=0.5;exitDx=0;exitDy=0;entryX=1;entryY=0.5;entryDx=0;entryDy=0;strokeColor=#FF0000;fontSize=11;fontColor=#000000;" parent="1" source="b9e8jBwT7ERd70_7LjdS-9" target="XKzR3t1UuBaWKu46-JBd-5" edge="1">
          <mxGeometry relative="1" as="geometry">
            <Array as="points">
              <mxPoint x="-310" y="720" />
              <mxPoint x="-310" y="680" />
            </Array>
          </mxGeometry>
        </mxCell>
        <mxCell id="b9e8jBwT7ERd70_7LjdS-9" value="/reply/edit[POST]&lt;br&gt;댓글 수정" style="rounded=0;whiteSpace=wrap;html=1;fontSize=20;" parent="1" vertex="1">
          <mxGeometry x="-210" y="690" width="190" height="60" as="geometry" />
        </mxCell>
        <mxCell id="b9e8jBwT7ERd70_7LjdS-14" style="edgeStyle=orthogonalEdgeStyle;rounded=0;orthogonalLoop=1;jettySize=auto;html=1;exitX=0;exitY=0.5;exitDx=0;exitDy=0;entryX=1;entryY=0.5;entryDx=0;entryDy=0;strokeColor=#FF0000;fontSize=11;fontColor=#000000;" parent="1" source="b9e8jBwT7ERd70_7LjdS-12" target="XKzR3t1UuBaWKu46-JBd-5" edge="1">
          <mxGeometry relative="1" as="geometry">
            <Array as="points">
              <mxPoint x="-310" y="800" />
              <mxPoint x="-310" y="680" />
            </Array>
          </mxGeometry>
        </mxCell>
        <mxCell id="b9e8jBwT7ERd70_7LjdS-12" value="/reply/delete[GET]&lt;br&gt;댓글 삭제" style="rounded=0;whiteSpace=wrap;html=1;fontSize=20;" parent="1" vertex="1">
          <mxGeometry x="-210" y="770" width="190" height="60" as="geometry" />
        </mxCell>
        <mxCell id="sMHF00W2EQUUvReQG8Md-6" value="boardNo" style="edgeStyle=orthogonalEdgeStyle;rounded=0;orthogonalLoop=1;jettySize=auto;html=1;exitX=0;exitY=0.25;exitDx=0;exitDy=0;entryX=1;entryY=1;entryDx=0;entryDy=0;" edge="1" parent="1" source="sMHF00W2EQUUvReQG8Md-4" target="XKzR3t1UuBaWKu46-JBd-5">
          <mxGeometry x="0.2157" relative="1" as="geometry">
            <mxPoint as="offset" />
          </mxGeometry>
        </mxCell>
        <mxCell id="sMHF00W2EQUUvReQG8Md-4" value="/reply/blind[GET]&lt;br&gt;댓글 블라인드" style="rounded=0;whiteSpace=wrap;html=1;fontSize=20;" vertex="1" parent="1">
          <mxGeometry x="-210" y="870" width="190" height="60" as="geometry" />
        </mxCell>
        <mxCell id="sMHF00W2EQUUvReQG8Md-10" value="글번호" style="edgeStyle=orthogonalEdgeStyle;rounded=0;orthogonalLoop=1;jettySize=auto;html=1;exitX=1;exitY=0.5;exitDx=0;exitDy=0;entryX=0;entryY=1;entryDx=0;entryDy=0;" edge="1" parent="1" source="sMHF00W2EQUUvReQG8Md-8" target="XKzR3t1UuBaWKu46-JBd-5">
          <mxGeometry relative="1" as="geometry" />
        </mxCell>
        <mxCell id="sMHF00W2EQUUvReQG8Md-8" value="/like[GET]&lt;br&gt;좋아요/취소" style="rounded=0;whiteSpace=wrap;html=1;fontSize=20;" vertex="1" parent="1">
          <mxGeometry x="-663" y="850" width="130" height="60" as="geometry" />
        </mxCell>
      </root>
    </mxGraphModel>
  </diagram>
  <diagram id="t2rL5kHZyFrx9FGqsDLl" name="의존성">
    <mxGraphModel dx="766" dy="482" grid="1" gridSize="10" guides="1" tooltips="1" connect="1" arrows="1" fold="1" page="1" pageScale="1" pageWidth="827" pageHeight="1169" math="0" shadow="0">
      <root>
        <mxCell id="0" />
        <mxCell id="1" parent="0" />
        <mxCell id="yWQKlwxxuTnWNx6dBClJ-10" value="PocketMonsterDto" style="edgeStyle=orthogonalEdgeStyle;rounded=0;orthogonalLoop=1;jettySize=auto;html=1;exitX=0.5;exitY=1;exitDx=0;exitDy=0;entryX=0.5;entryY=0;entryDx=0;entryDy=0;fontSize=20;" parent="1" source="yWQKlwxxuTnWNx6dBClJ-1" target="yWQKlwxxuTnWNx6dBClJ-9" edge="1">
          <mxGeometry relative="1" as="geometry" />
        </mxCell>
        <mxCell id="yWQKlwxxuTnWNx6dBClJ-1" value="PocketMonsterController" style="rounded=0;whiteSpace=wrap;html=1;fontSize=20;" parent="1" vertex="1">
          <mxGeometry x="90" y="110" width="260" height="60" as="geometry" />
        </mxCell>
        <mxCell id="yWQKlwxxuTnWNx6dBClJ-2" value="Database" style="rounded=0;whiteSpace=wrap;html=1;fontSize=20;" parent="1" vertex="1">
          <mxGeometry x="90" y="470" width="260" height="60" as="geometry" />
        </mxCell>
        <mxCell id="yWQKlwxxuTnWNx6dBClJ-6" style="edgeStyle=orthogonalEdgeStyle;rounded=0;orthogonalLoop=1;jettySize=auto;html=1;exitX=0.5;exitY=1;exitDx=0;exitDy=0;entryX=0.5;entryY=0;entryDx=0;entryDy=0;fontSize=20;" parent="1" source="yWQKlwxxuTnWNx6dBClJ-3" target="yWQKlwxxuTnWNx6dBClJ-2" edge="1">
          <mxGeometry relative="1" as="geometry" />
        </mxCell>
        <mxCell id="yWQKlwxxuTnWNx6dBClJ-7" style="edgeStyle=orthogonalEdgeStyle;rounded=0;orthogonalLoop=1;jettySize=auto;html=1;exitX=1;exitY=0.5;exitDx=0;exitDy=0;entryX=0;entryY=0.5;entryDx=0;entryDy=0;fontSize=20;" parent="1" source="yWQKlwxxuTnWNx6dBClJ-3" target="yWQKlwxxuTnWNx6dBClJ-4" edge="1">
          <mxGeometry relative="1" as="geometry" />
        </mxCell>
        <mxCell id="yWQKlwxxuTnWNx6dBClJ-3" value="JdbcTemplate" style="rounded=0;whiteSpace=wrap;html=1;fontSize=20;" parent="1" vertex="1">
          <mxGeometry x="90" y="350" width="260" height="60" as="geometry" />
        </mxCell>
        <mxCell id="yWQKlwxxuTnWNx6dBClJ-4" value="DataSource" style="rounded=0;whiteSpace=wrap;html=1;fontSize=20;" parent="1" vertex="1">
          <mxGeometry x="414" y="350" width="260" height="60" as="geometry" />
        </mxCell>
        <mxCell id="yWQKlwxxuTnWNx6dBClJ-11" style="edgeStyle=orthogonalEdgeStyle;rounded=0;orthogonalLoop=1;jettySize=auto;html=1;exitX=0.5;exitY=1;exitDx=0;exitDy=0;entryX=0.5;entryY=0;entryDx=0;entryDy=0;fontSize=20;" parent="1" source="yWQKlwxxuTnWNx6dBClJ-9" target="yWQKlwxxuTnWNx6dBClJ-3" edge="1">
          <mxGeometry relative="1" as="geometry" />
        </mxCell>
        <mxCell id="yWQKlwxxuTnWNx6dBClJ-9" value="PocketMonsterDao(Impl)" style="rounded=0;whiteSpace=wrap;html=1;fontSize=20;" parent="1" vertex="1">
          <mxGeometry x="90" y="230" width="260" height="60" as="geometry" />
        </mxCell>
      </root>
    </mxGraphModel>
  </diagram>
  <diagram id="LzUDxxsWNMRsAjohvRSG" name="유즈케이스">
    <mxGraphModel dx="766" dy="1651" grid="1" gridSize="10" guides="1" tooltips="1" connect="1" arrows="1" fold="1" page="1" pageScale="1" pageWidth="827" pageHeight="1169" math="0" shadow="0">
      <root>
        <mxCell id="0" />
        <mxCell id="1" parent="0" />
        <mxCell id="ACZcnwR5jKgAR-6mu1W3-5" value="" style="rounded=0;whiteSpace=wrap;html=1;" parent="1" vertex="1">
          <mxGeometry x="310" y="-340" width="120" height="1820" as="geometry" />
        </mxCell>
        <mxCell id="ACZcnwR5jKgAR-6mu1W3-11" value="" style="rounded=0;whiteSpace=wrap;html=1;" parent="1" vertex="1">
          <mxGeometry x="320" y="-330" width="100" height="260" as="geometry" />
        </mxCell>
        <mxCell id="ACZcnwR5jKgAR-6mu1W3-1" value="관리자" style="shape=umlActor;verticalLabelPosition=bottom;verticalAlign=top;html=1;outlineConnect=0;" parent="1" vertex="1">
          <mxGeometry x="110" y="310" width="30" height="60" as="geometry" />
        </mxCell>
        <mxCell id="ACZcnwR5jKgAR-6mu1W3-2" value="회원" style="shape=umlActor;verticalLabelPosition=bottom;verticalAlign=top;html=1;outlineConnect=0;" parent="1" vertex="1">
          <mxGeometry x="110" y="180" width="30" height="60" as="geometry" />
        </mxCell>
        <mxCell id="ACZcnwR5jKgAR-6mu1W3-3" value="비회원" style="shape=umlActor;verticalLabelPosition=bottom;verticalAlign=top;html=1;outlineConnect=0;" parent="1" vertex="1">
          <mxGeometry x="110" y="50" width="30" height="60" as="geometry" />
        </mxCell>
        <mxCell id="ACZcnwR5jKgAR-6mu1W3-6" value="포켓몬 등록" style="ellipse;whiteSpace=wrap;html=1;" parent="1" vertex="1">
          <mxGeometry x="330" y="-320" width="80" height="40" as="geometry" />
        </mxCell>
        <mxCell id="ACZcnwR5jKgAR-6mu1W3-7" value="포켓몬 목록" style="ellipse;whiteSpace=wrap;html=1;" parent="1" vertex="1">
          <mxGeometry x="330" y="-270" width="80" height="40" as="geometry" />
        </mxCell>
        <mxCell id="ACZcnwR5jKgAR-6mu1W3-8" value="포켓몬 상세" style="ellipse;whiteSpace=wrap;html=1;" parent="1" vertex="1">
          <mxGeometry x="330" y="-220" width="80" height="40" as="geometry" />
        </mxCell>
        <mxCell id="ACZcnwR5jKgAR-6mu1W3-9" value="포켓몬 수정" style="ellipse;whiteSpace=wrap;html=1;" parent="1" vertex="1">
          <mxGeometry x="330" y="-170" width="80" height="40" as="geometry" />
        </mxCell>
        <mxCell id="ACZcnwR5jKgAR-6mu1W3-10" value="포켓몬 삭제" style="ellipse;whiteSpace=wrap;html=1;" parent="1" vertex="1">
          <mxGeometry x="330" y="-120" width="80" height="40" as="geometry" />
        </mxCell>
        <mxCell id="ACZcnwR5jKgAR-6mu1W3-12" value="" style="endArrow=none;html=1;rounded=0;strokeColor=#FF0000;exitX=1;exitY=0.3333333333333333;exitDx=0;exitDy=0;exitPerimeter=0;entryX=0;entryY=0.5;entryDx=0;entryDy=0;" parent="1" source="ACZcnwR5jKgAR-6mu1W3-1" target="ACZcnwR5jKgAR-6mu1W3-11" edge="1">
          <mxGeometry width="50" height="50" relative="1" as="geometry">
            <mxPoint x="370" y="220" as="sourcePoint" />
            <mxPoint x="420" y="170" as="targetPoint" />
          </mxGeometry>
        </mxCell>
        <mxCell id="ACZcnwR5jKgAR-6mu1W3-14" value="" style="endArrow=none;html=1;rounded=0;strokeColor=#6c8ebf;exitX=1;exitY=0.3333333333333333;exitDx=0;exitDy=0;exitPerimeter=0;entryX=0;entryY=0.5;entryDx=0;entryDy=0;fillColor=#dae8fc;" parent="1" source="ACZcnwR5jKgAR-6mu1W3-2" target="ACZcnwR5jKgAR-6mu1W3-11" edge="1">
          <mxGeometry width="50" height="50" relative="1" as="geometry">
            <mxPoint x="150" y="340" as="sourcePoint" />
            <mxPoint x="320" y="100" as="targetPoint" />
          </mxGeometry>
        </mxCell>
        <mxCell id="ACZcnwR5jKgAR-6mu1W3-16" value="" style="rounded=0;whiteSpace=wrap;html=1;" parent="1" vertex="1">
          <mxGeometry x="320" y="-60" width="100" height="260" as="geometry" />
        </mxCell>
        <mxCell id="ACZcnwR5jKgAR-6mu1W3-17" value="방명록 등록" style="ellipse;whiteSpace=wrap;html=1;" parent="1" vertex="1">
          <mxGeometry x="330" y="-50" width="80" height="40" as="geometry" />
        </mxCell>
        <mxCell id="ACZcnwR5jKgAR-6mu1W3-18" value="방명록 목록" style="ellipse;whiteSpace=wrap;html=1;" parent="1" vertex="1">
          <mxGeometry x="330" width="80" height="40" as="geometry" />
        </mxCell>
        <mxCell id="ACZcnwR5jKgAR-6mu1W3-19" value="방명록 상세" style="ellipse;whiteSpace=wrap;html=1;" parent="1" vertex="1">
          <mxGeometry x="330" y="50" width="80" height="40" as="geometry" />
        </mxCell>
        <mxCell id="ACZcnwR5jKgAR-6mu1W3-20" value="방명록 수정" style="ellipse;whiteSpace=wrap;html=1;" parent="1" vertex="1">
          <mxGeometry x="330" y="100" width="80" height="40" as="geometry" />
        </mxCell>
        <mxCell id="ACZcnwR5jKgAR-6mu1W3-21" value="방명록 삭제" style="ellipse;whiteSpace=wrap;html=1;" parent="1" vertex="1">
          <mxGeometry x="330" y="150" width="80" height="40" as="geometry" />
        </mxCell>
        <mxCell id="ACZcnwR5jKgAR-6mu1W3-22" value="" style="endArrow=none;html=1;rounded=0;strokeColor=#82b366;exitX=1;exitY=0.3333333333333333;exitDx=0;exitDy=0;exitPerimeter=0;entryX=0;entryY=0.5;entryDx=0;entryDy=0;fillColor=#d5e8d4;" parent="1" source="ACZcnwR5jKgAR-6mu1W3-3" target="ACZcnwR5jKgAR-6mu1W3-17" edge="1">
          <mxGeometry width="50" height="50" relative="1" as="geometry">
            <mxPoint x="150" y="210" as="sourcePoint" />
            <mxPoint x="320" y="99.99999999999977" as="targetPoint" />
          </mxGeometry>
        </mxCell>
        <mxCell id="ACZcnwR5jKgAR-6mu1W3-23" value="" style="endArrow=none;html=1;rounded=0;strokeColor=#6c8ebf;exitX=1;exitY=0.3333333333333333;exitDx=0;exitDy=0;exitPerimeter=0;entryX=0;entryY=0.5;entryDx=0;entryDy=0;fillColor=#dae8fc;" parent="1" source="ACZcnwR5jKgAR-6mu1W3-2" target="ACZcnwR5jKgAR-6mu1W3-18" edge="1">
          <mxGeometry width="50" height="50" relative="1" as="geometry">
            <mxPoint x="150" y="210" as="sourcePoint" />
            <mxPoint x="320" y="99.99999999999977" as="targetPoint" />
          </mxGeometry>
        </mxCell>
        <mxCell id="ACZcnwR5jKgAR-6mu1W3-24" value="" style="endArrow=none;html=1;rounded=0;strokeColor=#FF0000;exitX=1;exitY=0.3333333333333333;exitDx=0;exitDy=0;exitPerimeter=0;" parent="1" source="ACZcnwR5jKgAR-6mu1W3-1" target="ACZcnwR5jKgAR-6mu1W3-16" edge="1">
          <mxGeometry width="50" height="50" relative="1" as="geometry">
            <mxPoint x="150" y="340" as="sourcePoint" />
            <mxPoint x="320" y="70" as="targetPoint" />
          </mxGeometry>
        </mxCell>
        <mxCell id="ACZcnwR5jKgAR-6mu1W3-25" value="" style="endArrow=none;html=1;rounded=0;strokeColor=#6c8ebf;exitX=1;exitY=0.3333333333333333;exitDx=0;exitDy=0;exitPerimeter=0;entryX=0;entryY=0.5;entryDx=0;entryDy=0;fillColor=#dae8fc;" parent="1" source="ACZcnwR5jKgAR-6mu1W3-2" target="ACZcnwR5jKgAR-6mu1W3-17" edge="1">
          <mxGeometry width="50" height="50" relative="1" as="geometry">
            <mxPoint x="150" y="210" as="sourcePoint" />
            <mxPoint x="330" y="320" as="targetPoint" />
          </mxGeometry>
        </mxCell>
        <mxCell id="ACZcnwR5jKgAR-6mu1W3-26" value="" style="endArrow=none;html=1;rounded=0;strokeColor=#6c8ebf;exitX=1;exitY=0.3333333333333333;exitDx=0;exitDy=0;exitPerimeter=0;entryX=0;entryY=0.5;entryDx=0;entryDy=0;fillColor=#dae8fc;" parent="1" source="ACZcnwR5jKgAR-6mu1W3-2" target="ACZcnwR5jKgAR-6mu1W3-19" edge="1">
          <mxGeometry width="50" height="50" relative="1" as="geometry">
            <mxPoint x="150" y="210" as="sourcePoint" />
            <mxPoint x="330" y="270" as="targetPoint" />
          </mxGeometry>
        </mxCell>
        <mxCell id="ACZcnwR5jKgAR-6mu1W3-27" value="" style="endArrow=none;html=1;rounded=0;strokeColor=#82b366;entryX=0;entryY=0.5;entryDx=0;entryDy=0;fillColor=#d5e8d4;" parent="1" target="ACZcnwR5jKgAR-6mu1W3-18" edge="1">
          <mxGeometry width="50" height="50" relative="1" as="geometry">
            <mxPoint x="140" y="70" as="sourcePoint" />
            <mxPoint x="320" y="260" as="targetPoint" />
          </mxGeometry>
        </mxCell>
        <mxCell id="ACZcnwR5jKgAR-6mu1W3-28" value="" style="endArrow=none;html=1;rounded=0;strokeColor=#82b366;entryX=0;entryY=0.5;entryDx=0;entryDy=0;fillColor=#d5e8d4;exitX=1;exitY=0.3333333333333333;exitDx=0;exitDy=0;exitPerimeter=0;" parent="1" source="ACZcnwR5jKgAR-6mu1W3-3" target="ACZcnwR5jKgAR-6mu1W3-19" edge="1">
          <mxGeometry width="50" height="50" relative="1" as="geometry">
            <mxPoint x="150" y="80" as="sourcePoint" />
            <mxPoint x="330" y="320" as="targetPoint" />
          </mxGeometry>
        </mxCell>
        <mxCell id="ACZcnwR5jKgAR-6mu1W3-29" value="" style="rounded=0;whiteSpace=wrap;html=1;" parent="1" vertex="1">
          <mxGeometry x="320" y="210" width="100" height="260" as="geometry" />
        </mxCell>
        <mxCell id="ACZcnwR5jKgAR-6mu1W3-30" value="음원 등록" style="ellipse;whiteSpace=wrap;html=1;" parent="1" vertex="1">
          <mxGeometry x="330" y="220" width="80" height="40" as="geometry" />
        </mxCell>
        <mxCell id="ACZcnwR5jKgAR-6mu1W3-31" value="음원 목록" style="ellipse;whiteSpace=wrap;html=1;" parent="1" vertex="1">
          <mxGeometry x="330" y="270" width="80" height="40" as="geometry" />
        </mxCell>
        <mxCell id="ACZcnwR5jKgAR-6mu1W3-32" value="음원 상세" style="ellipse;whiteSpace=wrap;html=1;" parent="1" vertex="1">
          <mxGeometry x="330" y="320" width="80" height="40" as="geometry" />
        </mxCell>
        <mxCell id="ACZcnwR5jKgAR-6mu1W3-33" value="음원 수정" style="ellipse;whiteSpace=wrap;html=1;" parent="1" vertex="1">
          <mxGeometry x="330" y="370" width="80" height="40" as="geometry" />
        </mxCell>
        <mxCell id="ACZcnwR5jKgAR-6mu1W3-34" value="음원 삭제" style="ellipse;whiteSpace=wrap;html=1;" parent="1" vertex="1">
          <mxGeometry x="330" y="420" width="80" height="40" as="geometry" />
        </mxCell>
        <mxCell id="ACZcnwR5jKgAR-6mu1W3-35" value="" style="endArrow=none;html=1;rounded=0;strokeColor=#FF0000;exitX=1;exitY=0.3333333333333333;exitDx=0;exitDy=0;exitPerimeter=0;entryX=0;entryY=0.5;entryDx=0;entryDy=0;" parent="1" source="ACZcnwR5jKgAR-6mu1W3-1" target="ACZcnwR5jKgAR-6mu1W3-29" edge="1">
          <mxGeometry width="50" height="50" relative="1" as="geometry">
            <mxPoint x="150" y="340" as="sourcePoint" />
            <mxPoint x="330" y="79.99999999999977" as="targetPoint" />
          </mxGeometry>
        </mxCell>
        <mxCell id="ACZcnwR5jKgAR-6mu1W3-36" value="" style="endArrow=none;html=1;rounded=0;strokeColor=#6c8ebf;exitX=1;exitY=0.3333333333333333;exitDx=0;exitDy=0;exitPerimeter=0;entryX=0;entryY=0.5;entryDx=0;entryDy=0;fillColor=#dae8fc;" parent="1" source="ACZcnwR5jKgAR-6mu1W3-2" target="ACZcnwR5jKgAR-6mu1W3-31" edge="1">
          <mxGeometry width="50" height="50" relative="1" as="geometry">
            <mxPoint x="150" y="210" as="sourcePoint" />
            <mxPoint x="339.9999999999985" y="79.99999999999977" as="targetPoint" />
          </mxGeometry>
        </mxCell>
        <mxCell id="ACZcnwR5jKgAR-6mu1W3-37" value="" style="endArrow=none;html=1;rounded=0;strokeColor=#6c8ebf;exitX=1;exitY=0.3333333333333333;exitDx=0;exitDy=0;exitPerimeter=0;entryX=0;entryY=0.5;entryDx=0;entryDy=0;fillColor=#dae8fc;" parent="1" source="ACZcnwR5jKgAR-6mu1W3-2" target="ACZcnwR5jKgAR-6mu1W3-32" edge="1">
          <mxGeometry width="50" height="50" relative="1" as="geometry">
            <mxPoint x="150" y="210" as="sourcePoint" />
            <mxPoint x="339.9999999999985" y="300" as="targetPoint" />
          </mxGeometry>
        </mxCell>
        <mxCell id="ACZcnwR5jKgAR-6mu1W3-38" value="" style="endArrow=none;html=1;rounded=0;strokeColor=#82b366;entryX=0;entryY=0.5;entryDx=0;entryDy=0;fillColor=#d5e8d4;exitX=1;exitY=0.3333333333333333;exitDx=0;exitDy=0;exitPerimeter=0;" parent="1" source="ACZcnwR5jKgAR-6mu1W3-3" target="ACZcnwR5jKgAR-6mu1W3-31" edge="1">
          <mxGeometry width="50" height="50" relative="1" as="geometry">
            <mxPoint x="150" y="79.99999999999977" as="sourcePoint" />
            <mxPoint x="339.9999999999985" y="79.99999999999977" as="targetPoint" />
          </mxGeometry>
        </mxCell>
        <mxCell id="ACZcnwR5jKgAR-6mu1W3-39" value="" style="rounded=0;whiteSpace=wrap;html=1;" parent="1" vertex="1">
          <mxGeometry x="320" y="480" width="100" height="580" as="geometry" />
        </mxCell>
        <mxCell id="ACZcnwR5jKgAR-6mu1W3-40" value="회원 가입" style="ellipse;whiteSpace=wrap;html=1;" parent="1" vertex="1">
          <mxGeometry x="330" y="490" width="80" height="40" as="geometry" />
        </mxCell>
        <mxCell id="ACZcnwR5jKgAR-6mu1W3-41" value="로그인" style="ellipse;whiteSpace=wrap;html=1;" parent="1" vertex="1">
          <mxGeometry x="330" y="540" width="80" height="40" as="geometry" />
        </mxCell>
        <mxCell id="ACZcnwR5jKgAR-6mu1W3-42" value="마이페이지" style="ellipse;whiteSpace=wrap;html=1;" parent="1" vertex="1">
          <mxGeometry x="330" y="640" width="80" height="40" as="geometry" />
        </mxCell>
        <mxCell id="ACZcnwR5jKgAR-6mu1W3-43" value="로그아웃" style="ellipse;whiteSpace=wrap;html=1;" parent="1" vertex="1">
          <mxGeometry x="330" y="590" width="80" height="40" as="geometry" />
        </mxCell>
        <mxCell id="ACZcnwR5jKgAR-6mu1W3-44" value="비밀번호&lt;br&gt;변경" style="ellipse;whiteSpace=wrap;html=1;" parent="1" vertex="1">
          <mxGeometry x="330" y="690" width="80" height="40" as="geometry" />
        </mxCell>
        <mxCell id="ACZcnwR5jKgAR-6mu1W3-45" value="개인정보 수정" style="ellipse;whiteSpace=wrap;html=1;" parent="1" vertex="1">
          <mxGeometry x="330" y="740" width="80" height="40" as="geometry" />
        </mxCell>
        <mxCell id="ACZcnwR5jKgAR-6mu1W3-46" value="회원 탈퇴" style="ellipse;whiteSpace=wrap;html=1;" parent="1" vertex="1">
          <mxGeometry x="330" y="790" width="80" height="40" as="geometry" />
        </mxCell>
        <mxCell id="ACZcnwR5jKgAR-6mu1W3-47" value="회원 목록" style="ellipse;whiteSpace=wrap;html=1;" parent="1" vertex="1">
          <mxGeometry x="330" y="840" width="80" height="40" as="geometry" />
        </mxCell>
        <mxCell id="ACZcnwR5jKgAR-6mu1W3-48" value="회원 상세" style="ellipse;whiteSpace=wrap;html=1;" parent="1" vertex="1">
          <mxGeometry x="330" y="890" width="80" height="40" as="geometry" />
        </mxCell>
        <mxCell id="ACZcnwR5jKgAR-6mu1W3-49" value="회원정보 수정" style="ellipse;whiteSpace=wrap;html=1;" parent="1" vertex="1">
          <mxGeometry x="330" y="940" width="80" height="40" as="geometry" />
        </mxCell>
        <mxCell id="ACZcnwR5jKgAR-6mu1W3-50" value="회원 강제탈퇴" style="ellipse;whiteSpace=wrap;html=1;" parent="1" vertex="1">
          <mxGeometry x="330" y="990" width="80" height="40" as="geometry" />
        </mxCell>
        <mxCell id="ACZcnwR5jKgAR-6mu1W3-51" value="" style="endArrow=none;html=1;rounded=0;strokeColor=#FF0000;exitX=1;exitY=0.3333333333333333;exitDx=0;exitDy=0;exitPerimeter=0;entryX=0;entryY=0.5;entryDx=0;entryDy=0;" parent="1" source="ACZcnwR5jKgAR-6mu1W3-1" target="ACZcnwR5jKgAR-6mu1W3-47" edge="1">
          <mxGeometry width="50" height="50" relative="1" as="geometry">
            <mxPoint x="150" y="340" as="sourcePoint" />
            <mxPoint x="260" y="730" as="targetPoint" />
          </mxGeometry>
        </mxCell>
        <mxCell id="ACZcnwR5jKgAR-6mu1W3-52" value="" style="endArrow=none;html=1;rounded=0;strokeColor=#FF0000;exitX=1;exitY=0.3333333333333333;exitDx=0;exitDy=0;exitPerimeter=0;entryX=0;entryY=0.5;entryDx=0;entryDy=0;" parent="1" source="ACZcnwR5jKgAR-6mu1W3-1" target="ACZcnwR5jKgAR-6mu1W3-48" edge="1">
          <mxGeometry width="50" height="50" relative="1" as="geometry">
            <mxPoint x="150" y="340" as="sourcePoint" />
            <mxPoint x="339.9999999999985" y="870" as="targetPoint" />
          </mxGeometry>
        </mxCell>
        <mxCell id="ACZcnwR5jKgAR-6mu1W3-53" value="" style="endArrow=none;html=1;rounded=0;strokeColor=#FF0000;exitX=1;exitY=0.3333333333333333;exitDx=0;exitDy=0;exitPerimeter=0;entryX=0;entryY=0.5;entryDx=0;entryDy=0;" parent="1" source="ACZcnwR5jKgAR-6mu1W3-1" target="ACZcnwR5jKgAR-6mu1W3-49" edge="1">
          <mxGeometry width="50" height="50" relative="1" as="geometry">
            <mxPoint x="150" y="340" as="sourcePoint" />
            <mxPoint x="339.9999999999985" y="920" as="targetPoint" />
          </mxGeometry>
        </mxCell>
        <mxCell id="ACZcnwR5jKgAR-6mu1W3-54" value="" style="endArrow=none;html=1;rounded=0;strokeColor=#FF0000;exitX=1;exitY=0.3333333333333333;exitDx=0;exitDy=0;exitPerimeter=0;entryX=0;entryY=0.5;entryDx=0;entryDy=0;" parent="1" source="ACZcnwR5jKgAR-6mu1W3-1" target="ACZcnwR5jKgAR-6mu1W3-50" edge="1">
          <mxGeometry width="50" height="50" relative="1" as="geometry">
            <mxPoint x="160" y="350" as="sourcePoint" />
            <mxPoint x="349.9999999999985" y="930" as="targetPoint" />
          </mxGeometry>
        </mxCell>
        <mxCell id="ACZcnwR5jKgAR-6mu1W3-55" value="" style="endArrow=none;html=1;rounded=0;strokeColor=#6c8ebf;exitX=1;exitY=0.3333333333333333;exitDx=0;exitDy=0;exitPerimeter=0;entryX=0;entryY=0.5;entryDx=0;entryDy=0;fillColor=#dae8fc;" parent="1" source="ACZcnwR5jKgAR-6mu1W3-2" target="ACZcnwR5jKgAR-6mu1W3-43" edge="1">
          <mxGeometry width="50" height="50" relative="1" as="geometry">
            <mxPoint x="150" y="210" as="sourcePoint" />
            <mxPoint x="339.9999999999985" y="350" as="targetPoint" />
          </mxGeometry>
        </mxCell>
        <mxCell id="ACZcnwR5jKgAR-6mu1W3-56" value="" style="endArrow=none;html=1;rounded=0;strokeColor=#6c8ebf;exitX=1;exitY=0.3333333333333333;exitDx=0;exitDy=0;exitPerimeter=0;entryX=0;entryY=0.5;entryDx=0;entryDy=0;fillColor=#dae8fc;" parent="1" source="ACZcnwR5jKgAR-6mu1W3-2" target="ACZcnwR5jKgAR-6mu1W3-42" edge="1">
          <mxGeometry width="50" height="50" relative="1" as="geometry">
            <mxPoint x="150" y="210" as="sourcePoint" />
            <mxPoint x="339.9999999999985" y="620" as="targetPoint" />
          </mxGeometry>
        </mxCell>
        <mxCell id="ACZcnwR5jKgAR-6mu1W3-57" value="" style="endArrow=none;html=1;rounded=0;strokeColor=#6c8ebf;exitX=1;exitY=0.3333333333333333;exitDx=0;exitDy=0;exitPerimeter=0;entryX=0;entryY=0.5;entryDx=0;entryDy=0;fillColor=#dae8fc;" parent="1" source="ACZcnwR5jKgAR-6mu1W3-2" target="ACZcnwR5jKgAR-6mu1W3-44" edge="1">
          <mxGeometry width="50" height="50" relative="1" as="geometry">
            <mxPoint x="160" y="220" as="sourcePoint" />
            <mxPoint x="349.9999999999985" y="630" as="targetPoint" />
          </mxGeometry>
        </mxCell>
        <mxCell id="ACZcnwR5jKgAR-6mu1W3-58" value="" style="endArrow=none;html=1;rounded=0;strokeColor=#6c8ebf;exitX=1;exitY=0.3333333333333333;exitDx=0;exitDy=0;exitPerimeter=0;entryX=0;entryY=0.5;entryDx=0;entryDy=0;fillColor=#dae8fc;" parent="1" source="ACZcnwR5jKgAR-6mu1W3-2" target="ACZcnwR5jKgAR-6mu1W3-45" edge="1">
          <mxGeometry width="50" height="50" relative="1" as="geometry">
            <mxPoint x="170" y="230" as="sourcePoint" />
            <mxPoint x="359.9999999999985" y="640" as="targetPoint" />
          </mxGeometry>
        </mxCell>
        <mxCell id="ACZcnwR5jKgAR-6mu1W3-59" value="" style="endArrow=none;html=1;rounded=0;strokeColor=#82b366;entryX=0;entryY=0.5;entryDx=0;entryDy=0;fillColor=#d5e8d4;exitX=1;exitY=0.3333333333333333;exitDx=0;exitDy=0;exitPerimeter=0;" parent="1" source="ACZcnwR5jKgAR-6mu1W3-3" target="ACZcnwR5jKgAR-6mu1W3-41" edge="1">
          <mxGeometry width="50" height="50" relative="1" as="geometry">
            <mxPoint x="150" y="79.99999999999977" as="sourcePoint" />
            <mxPoint x="339.9999999999985" y="300" as="targetPoint" />
          </mxGeometry>
        </mxCell>
        <mxCell id="ACZcnwR5jKgAR-6mu1W3-60" value="" style="endArrow=none;html=1;rounded=0;strokeColor=#82b366;entryX=0;entryY=0.5;entryDx=0;entryDy=0;fillColor=#d5e8d4;exitX=1;exitY=0.3333333333333333;exitDx=0;exitDy=0;exitPerimeter=0;" parent="1" source="ACZcnwR5jKgAR-6mu1W3-3" target="ACZcnwR5jKgAR-6mu1W3-40" edge="1">
          <mxGeometry width="50" height="50" relative="1" as="geometry">
            <mxPoint x="160" y="89.99999999999977" as="sourcePoint" />
            <mxPoint x="349.9999999999985" y="310" as="targetPoint" />
          </mxGeometry>
        </mxCell>
        <mxCell id="ACZcnwR5jKgAR-6mu1W3-61" value="&lt;h1&gt;Use-case diagram&lt;/h1&gt;&lt;p&gt;사용자 계층별 이용 가능 기능을 명시한 다이어그램&lt;/p&gt;&lt;p&gt;- Actor : 행위자&lt;/p&gt;&lt;p&gt;- System : 구현된 서비스 집합&lt;/p&gt;&lt;p&gt;- Function : 구현된 기능 1개&lt;/p&gt;&lt;p&gt;&lt;br&gt;&lt;/p&gt;" style="text;html=1;strokeColor=none;fillColor=none;spacing=5;spacingTop=-20;whiteSpace=wrap;overflow=hidden;rounded=0;" parent="1" vertex="1">
          <mxGeometry x="60" y="-340" width="220" height="170" as="geometry" />
        </mxCell>
        <mxCell id="ACZcnwR5jKgAR-6mu1W3-62" value="" style="endArrow=none;html=1;rounded=0;strokeColor=#6c8ebf;exitX=1;exitY=0.3333333333333333;exitDx=0;exitDy=0;exitPerimeter=0;entryX=0;entryY=0.5;entryDx=0;entryDy=0;fillColor=#dae8fc;" parent="1" source="ACZcnwR5jKgAR-6mu1W3-2" target="ACZcnwR5jKgAR-6mu1W3-46" edge="1">
          <mxGeometry width="50" height="50" relative="1" as="geometry">
            <mxPoint x="150" y="210" as="sourcePoint" />
            <mxPoint x="340" y="770" as="targetPoint" />
          </mxGeometry>
        </mxCell>
        <mxCell id="1XVh9fHhxiJyfdGXmsT1-1" value="" style="rounded=0;whiteSpace=wrap;html=1;fontSize=13;" parent="1" vertex="1">
          <mxGeometry x="320" y="1080" width="100" height="370" as="geometry" />
        </mxCell>
        <mxCell id="1XVh9fHhxiJyfdGXmsT1-2" value="글쓰기" style="ellipse;whiteSpace=wrap;html=1;" parent="1" vertex="1">
          <mxGeometry x="330" y="1090" width="80" height="40" as="geometry" />
        </mxCell>
        <mxCell id="1XVh9fHhxiJyfdGXmsT1-3" value="글삭제" style="ellipse;whiteSpace=wrap;html=1;" parent="1" vertex="1">
          <mxGeometry x="330" y="1150" width="80" height="40" as="geometry" />
        </mxCell>
        <mxCell id="1XVh9fHhxiJyfdGXmsT1-4" value="상세보기" style="ellipse;whiteSpace=wrap;html=1;" parent="1" vertex="1">
          <mxGeometry x="330" y="1210" width="80" height="40" as="geometry" />
        </mxCell>
        <mxCell id="1XVh9fHhxiJyfdGXmsT1-5" value="글수정" style="ellipse;whiteSpace=wrap;html=1;" parent="1" vertex="1">
          <mxGeometry x="330" y="1270" width="80" height="40" as="geometry" />
        </mxCell>
        <mxCell id="1XVh9fHhxiJyfdGXmsT1-6" value="목록/검색" style="ellipse;whiteSpace=wrap;html=1;" parent="1" vertex="1">
          <mxGeometry x="330" y="1330" width="80" height="40" as="geometry" />
        </mxCell>
        <mxCell id="1XVh9fHhxiJyfdGXmsT1-9" value="" style="endArrow=none;html=1;rounded=0;strokeColor=#82b366;entryX=0;entryY=0.5;entryDx=0;entryDy=0;fillColor=#d5e8d4;exitX=1;exitY=0.3333333333333333;exitDx=0;exitDy=0;exitPerimeter=0;" parent="1" source="ACZcnwR5jKgAR-6mu1W3-3" target="1XVh9fHhxiJyfdGXmsT1-6" edge="1">
          <mxGeometry width="50" height="50" relative="1" as="geometry">
            <mxPoint x="150" y="80" as="sourcePoint" />
            <mxPoint x="340" y="520" as="targetPoint" />
          </mxGeometry>
        </mxCell>
        <mxCell id="1XVh9fHhxiJyfdGXmsT1-10" value="" style="endArrow=none;html=1;rounded=0;strokeColor=#82b366;entryX=0;entryY=0.5;entryDx=0;entryDy=0;fillColor=#d5e8d4;exitX=1;exitY=0.3333333333333333;exitDx=0;exitDy=0;exitPerimeter=0;" parent="1" source="ACZcnwR5jKgAR-6mu1W3-3" target="1XVh9fHhxiJyfdGXmsT1-4" edge="1">
          <mxGeometry width="50" height="50" relative="1" as="geometry">
            <mxPoint x="160" y="90" as="sourcePoint" />
            <mxPoint x="350" y="530" as="targetPoint" />
          </mxGeometry>
        </mxCell>
        <mxCell id="1XVh9fHhxiJyfdGXmsT1-11" value="" style="endArrow=none;html=1;rounded=0;strokeColor=#6c8ebf;exitX=1;exitY=0.3333333333333333;exitDx=0;exitDy=0;exitPerimeter=0;entryX=0;entryY=0.5;entryDx=0;entryDy=0;fillColor=#dae8fc;" parent="1" source="ACZcnwR5jKgAR-6mu1W3-2" target="1XVh9fHhxiJyfdGXmsT1-1" edge="1">
          <mxGeometry width="50" height="50" relative="1" as="geometry">
            <mxPoint x="150" y="210" as="sourcePoint" />
            <mxPoint x="340" y="620" as="targetPoint" />
          </mxGeometry>
        </mxCell>
        <mxCell id="1XVh9fHhxiJyfdGXmsT1-12" value="" style="endArrow=none;html=1;rounded=0;strokeColor=#FF0000;exitX=1;exitY=0.3333333333333333;exitDx=0;exitDy=0;exitPerimeter=0;entryX=0;entryY=0.5;entryDx=0;entryDy=0;" parent="1" source="ACZcnwR5jKgAR-6mu1W3-1" target="1XVh9fHhxiJyfdGXmsT1-1" edge="1">
          <mxGeometry width="50" height="50" relative="1" as="geometry">
            <mxPoint x="150" y="340" as="sourcePoint" />
            <mxPoint x="340" y="870" as="targetPoint" />
          </mxGeometry>
        </mxCell>
      </root>
    </mxGraphModel>
  </diagram>
</mxfile>
